<svg width="88" height="71" viewBox="0 0 88 71" fill="none" xmlns="http://www.w3.org/2000/svg">
<path fill-rule="evenodd" clip-rule="evenodd" d="M2.62673 54.337L5.73529 60.7477C7.71388 64.8291 9.42262 68.3549 13.5947 68.3549H74.4072C78.5772 68.3549 80.2861 64.8292 82.2647 60.7477L85.3734 54.337H2.62673ZM74.4072 70.4H13.5948C8.16842 70.4 5.91525 65.7505 3.92802 61.6495L0.104094 53.7671C-0.0497218 53.4493 -0.0323232 53.0747 0.151318 52.7747C0.336766 52.4746 0.658632 52.2918 1.00671 52.2918L86.9929 52.2917C87.3413 52.2917 87.6646 52.4747 87.8483 52.7747C88.032 53.0747 88.0495 53.4494 87.8973 53.7671L84.0737 61.6494C82.0844 65.7504 79.8313 70.4 74.4072 70.4Z" fill="#005774"/>
<path fill-rule="evenodd" clip-rule="evenodd" d="M80.7624 54.3403C80.2063 54.3403 79.7547 53.8841 79.7547 53.3178C79.7548 33.31 63.7155 17.0323 44.001 17.0323C24.285 17.0322 8.24566 33.31 8.24566 53.3178C8.24589 53.8841 7.79613 54.3404 7.23809 54.3404C6.68175 54.3403 6.23047 53.8841 6.23047 53.3178C6.23075 43.0796 10.1594 33.4539 17.293 26.2142C24.4268 18.9744 33.9112 14.9871 44.0011 14.9871C54.0892 14.987 63.5738 18.9744 70.7074 26.2142C77.8412 33.4538 81.7699 43.0796 81.7699 53.3178C81.7699 53.8841 81.3186 54.3404 80.7624 54.3403Z" fill="#005774"/>
<path fill-rule="evenodd" clip-rule="evenodd" d="M48.4337 17.303C47.8756 17.303 47.426 16.845 47.426 16.2805V10.8888C47.426 8.97677 45.8919 7.42164 44.0097 7.42164C42.126 7.42158 40.5933 8.97677 40.5933 10.8888L40.5934 16.2804C40.5934 16.845 40.142 17.303 39.5857 17.303C39.0281 17.303 38.5781 16.845 38.5781 16.2805L38.5782 10.8888C38.5782 7.84948 41.0148 5.37646 44.0097 5.37646C47.0045 5.37641 49.4412 7.84948 49.4412 10.8888L49.4412 16.2804C49.4412 16.845 48.9898 17.303 48.4337 17.303Z" fill="#005774"/>
<path fill-rule="evenodd" clip-rule="evenodd" d="M43.994 7.42075C43.4362 7.42075 42.9863 6.96281 42.9863 6.39825L42.9864 1.02256C42.9864 0.457991 43.4359 0 43.9939 0C44.5505 0 45.0015 0.458049 45.0015 1.02261V6.39818C45.0015 6.96275 44.5502 7.4208 43.994 7.42075Z" fill="#005774"/>
<path fill-rule="evenodd" clip-rule="evenodd" d="M65.3255 40.5714C64.8811 40.5714 64.4735 40.2697 64.3528 39.8134C62.8852 34.2549 57.8997 30.3723 52.2302 30.3723C51.6743 30.3723 51.2227 29.9143 51.2227 29.3498C51.2228 28.7851 51.674 28.3271 52.2302 28.3271C58.8112 28.3271 64.596 32.8329 66.2998 39.2826C66.4433 39.8293 66.1248 40.3904 65.5878 40.5359C65.5007 40.559 65.4129 40.5715 65.3255 40.5714Z" fill="#005774"/>
</svg>
