<svg width="83" height="80" viewBox="0 0 83 80" fill="none" xmlns="http://www.w3.org/2000/svg">
<path d="M61.0715 69.8223C61.2099 69.8223 61.331 69.7876 61.4695 69.7355L75.8665 62.3926C76.2126 62.219 76.3856 61.8371 76.3337 61.4552L71.6615 35.8684C71.3674 34.2366 70.3118 32.8306 68.8409 32.0842L47.0549 21.0439C41.9156 18.3533 37.8664 25.8871 42.9539 28.7165L59.5315 37.3612C60.5178 37.882 61.2272 38.8542 61.4003 39.9651L63.4249 52.5325C63.5633 53.2442 62.7154 53.7823 62.1271 53.3831C61.9194 53.2442 61.781 53.0359 61.7464 52.7928L60.1544 42.4469C59.2373 37.274 51.6235 38.3329 52.1598 43.5752L54.7728 64.1971C54.8074 64.4054 54.8939 64.5964 55.0496 64.7352L60.5005 69.5784C60.6562 69.7173 60.8638 69.8041 61.0715 69.8041L61.0715 69.8223ZM53.8557 43.3678C53.5269 40.3821 57.9222 39.7745 58.4067 42.7255L59.9987 53.0715C60.5697 56.4217 65.5705 55.6406 65.0861 52.2556L63.0616 39.6883C62.802 38.0391 61.7637 36.5984 60.2756 35.8172L43.698 27.1725C40.6352 25.506 43.1097 20.8886 46.2071 22.5724L68.0275 33.63C69.0138 34.1334 69.7232 35.0882 69.931 36.1818L74.482 61.1265L61.1924 67.8965L56.4165 63.6436L53.8382 43.3506L53.8557 43.3678ZM82.9089 69.1113L79.9672 63.296C79.7423 62.862 79.2231 62.7058 78.8078 62.9141L59.8946 72.5483C59.4793 72.7566 59.2889 73.3121 59.5139 73.7114L62.4555 79.5267C62.6805 79.9607 63.1996 80.1169 63.6149 79.9086L82.5282 70.2743C82.9608 70.066 83.1165 69.5279 82.9089 69.1113ZM63.6146 77.9644L61.4517 73.694L78.8255 64.8409L80.9885 69.1113L63.6146 77.9644ZM40.0633 51.2833L23.5034 42.6386C22.4998 42.1178 21.8077 41.1456 21.6346 40.0347L19.61 27.4673C19.437 26.3737 21.1155 26.096 21.2885 27.2069L22.8805 37.5529C23.7976 42.7085 31.4114 41.6844 30.875 36.4246L28.2621 15.8027C28.2275 15.5944 28.1409 15.4034 27.9852 15.2646L22.5344 10.4214C22.2748 10.1784 21.8768 10.1263 21.5654 10.2999L7.16834 17.6427C6.82225 17.8163 6.64921 18.1982 6.70112 18.5801L11.3733 44.1669C11.6675 45.7987 12.7231 47.2048 14.1939 47.9511C14.713 48.0553 38.2635 60.6062 38.073 59.5475C42.5548 59.5822 44.0948 53.3677 40.0803 51.3194L40.0633 51.2833ZM40.3748 56.3521C39.7172 57.654 38.0214 58.1747 36.7583 57.4283L14.9379 46.3707C13.9516 45.8673 13.2422 44.9126 13.0344 43.8189L8.48339 18.8742L21.773 12.1042L26.5489 16.3398L29.1272 36.6328C29.4387 38.5423 27.1199 39.9657 25.5625 38.8374C25.026 38.4729 24.6627 37.9174 24.5588 37.2752L22.9669 26.9292C22.7765 25.4363 21.1672 24.3949 19.731 24.8288C18.4678 25.176 17.6717 26.4259 17.8794 27.7278L19.9039 40.2951C20.1635 41.9443 21.2018 43.385 22.6899 44.1662L39.2675 52.8109C40.5307 53.4358 41.0497 55.1022 40.3748 56.3521ZM23.538 6.94822C23.6072 6.72256 23.5899 6.49689 23.4861 6.28858L20.5445 0.473306C20.3368 0.0393376 19.8004 -0.116899 19.3851 0.0914089L0.471811 9.72565C0.0392133 9.93396 -0.116529 10.4721 0.0911201 10.8887L3.03277 16.704C3.24041 17.1206 3.77685 17.3116 4.19217 17.0859L23.1054 7.45166C23.3131 7.34751 23.4688 7.17388 23.538 6.94822ZM4.17514 15.1416L2.01215 10.8713L19.386 2.01817L21.549 6.28853L4.17514 15.1416Z" fill="#005774"/>
</svg>
