<svg width="80" height="80" viewBox="0 0 80 80" fill="none" xmlns="http://www.w3.org/2000/svg">
<path d="M40 0C38.9815 0 38.2075 0.397528 37.3439 0.872785C36.4803 1.34809 35.5723 1.95967 34.6905 2.56449C33.8088 3.1693 32.9509 3.7674 32.215 4.24003C31.4791 4.71257 30.8111 5.05017 30.6445 5.09396C30.4778 5.13931 29.7376 5.19066 28.8639 5.15052C27.9902 5.10517 26.9371 5.00185 25.8711 4.91886C24.8051 4.83676 23.7371 4.77218 22.7517 4.79225C21.7663 4.81049 20.8915 4.85704 20.0094 5.36333C19.1274 5.87236 18.6477 6.60523 18.1372 7.44833C17.6268 8.29124 17.1573 9.26102 16.6961 10.2256C16.2348 11.1902 15.7771 12.1583 15.3761 12.9356C14.9751 13.7128 14.5714 14.3275 14.4495 14.4495C14.3275 14.5717 13.7128 14.9751 12.9355 15.3762C12.1582 15.7775 11.1929 16.2158 10.2283 16.6773C9.26366 17.1389 8.29145 17.6268 7.44831 18.1373C6.60522 18.6473 5.87258 19.1086 5.36332 19.9906C4.85402 20.8728 4.81276 21.7502 4.79224 22.7356C4.77217 23.721 4.85172 24.8052 4.93501 25.8712C5.01803 26.9372 5.1091 27.9903 5.15051 28.864C5.19159 29.7379 5.14165 30.4779 5.09664 30.6446C5.05191 30.8115 4.7315 31.4764 4.25887 32.2123C3.78624 32.9485 3.16926 33.8089 2.56448 34.6907C1.95967 35.5728 1.3666 36.4643 0.891643 37.3279C0.416732 38.1917 0 38.9816 0 40.0001C0 41.0186 0.416641 41.7899 0.891643 42.6535C1.36655 43.5174 1.95971 44.409 2.56448 45.2907C3.1693 46.1729 3.78622 47.0492 4.25887 47.7852C4.7315 48.5213 5.05194 49.1864 5.09664 49.3529C5.14131 49.5197 5.19148 50.2438 5.15051 51.1174C5.10944 51.9913 5.01793 53.0442 4.93501 54.1102C4.852 55.1762 4.77181 56.2604 4.79224 57.2457C4.81231 58.2312 4.85429 59.1087 5.36332 59.9907C5.87253 60.8729 6.60518 61.3497 7.44831 61.8602C8.2914 62.37 9.26366 62.8429 10.2283 63.3041C11.1929 63.766 12.1582 64.204 12.9355 64.6052C13.7129 65.0066 14.3275 65.4257 14.4495 65.548C14.5714 65.67 14.9751 66.2872 15.3761 67.0646C15.7771 67.8419 16.2348 68.7884 16.6961 69.753C17.1573 70.7177 17.6268 71.6898 18.1372 72.533C18.6477 73.3759 19.1274 74.1276 20.0094 74.6369C20.8915 75.1456 21.7663 75.1843 22.7517 75.2053C23.7371 75.2261 24.8051 75.1411 25.8711 75.0624C26.9371 74.9806 27.9902 74.8909 28.8639 74.8497C29.7375 74.8028 30.4778 74.8602 30.6445 74.906C30.8112 74.953 31.479 75.2689 32.215 75.7411C32.9509 76.2134 33.8088 76.8307 34.6905 77.4355C35.5723 78.0403 36.4803 78.6361 37.3439 79.1111C38.2075 79.5865 38.9815 80 40 80C41.0185 80 41.7897 79.5861 42.6534 79.1111C43.517 78.6357 44.4277 78.0402 45.3094 77.4355C46.1912 76.8307 47.0491 76.2137 47.785 75.7411C48.5209 75.2689 49.1862 74.9507 49.3528 74.906C49.5195 74.8591 50.2624 74.8096 51.1361 74.8497C52.0097 74.8967 53.0629 74.9806 54.1289 75.0624C55.1949 75.1443 56.2602 75.2261 57.2456 75.2053C58.231 75.1844 59.1085 75.1432 59.9906 74.6369C60.8726 74.1276 61.3496 73.3761 61.8601 72.533C62.3704 71.6901 62.8427 70.7177 63.3039 69.753C63.7651 68.7884 64.2228 67.842 64.6239 67.0646C65.0249 66.2874 65.4286 65.6701 65.5505 65.548C65.6725 65.4255 66.2872 65.0058 67.0644 64.6052C67.8418 64.2038 68.8071 63.7655 69.7717 63.3041C70.7363 62.8428 71.6897 62.3706 72.5328 61.8602C73.3759 61.3494 74.1274 60.8728 74.6367 59.9907C75.1459 59.1086 75.1872 58.2312 75.2077 57.2457C75.2276 56.2604 75.1483 55.1762 75.065 54.1102C74.982 53.0442 74.8909 51.991 74.8495 51.1174C74.8083 50.2434 74.8583 49.5196 74.9034 49.3529C74.9482 49.1861 75.2685 48.5211 75.7411 47.7852C76.2138 47.049 76.8281 46.1725 77.4328 45.2907C78.0376 44.4086 78.6334 43.5171 79.1084 42.6535C79.5833 41.7896 80 41.0186 80 40.0001C80 38.9816 79.5834 38.1915 79.1084 37.3279C78.6335 36.464 78.0376 35.5724 77.4328 34.6907C76.828 33.8085 76.2138 32.9482 75.7411 32.2123C75.2685 31.4762 74.9481 30.8112 74.9034 30.6446C74.8585 30.4776 74.8086 29.738 74.8495 28.864C74.8907 27.99 74.982 26.9372 75.065 25.8712C75.148 24.8052 75.2282 23.721 75.2077 22.7356C75.1879 21.7502 75.1457 20.8728 74.6367 19.9906C74.1274 19.1085 73.376 18.6477 72.5328 18.1373C71.6897 17.6264 70.7363 17.1385 69.7717 16.6773C68.8071 16.2157 67.8417 15.7774 67.0644 15.3762C66.2871 14.9748 65.6725 14.5714 65.5505 14.4495C65.4286 14.3272 65.0249 13.7129 64.6239 12.9356C64.2228 12.1583 63.7652 11.1902 63.3039 10.2256C62.8427 9.26102 62.3705 8.29151 61.8601 7.44833C61.3497 6.60541 60.8726 5.87254 59.9906 5.36333C59.1085 4.8543 58.231 4.81231 57.2456 4.79225C56.2602 4.774 55.1949 4.83968 54.1289 4.91886C53.0629 5.00097 52.0098 5.1095 51.1361 5.15052C50.2624 5.19639 49.5194 5.1401 49.3528 5.09396C49.1862 5.04809 48.521 4.71254 47.785 4.24003C47.0491 3.76748 46.1912 3.16922 45.3094 2.56449C44.4277 1.95967 43.517 1.34769 42.6534 0.872785C41.7898 0.397508 41.0185 0 40 0ZM40 2.76113C40.0128 2.76113 40.631 2.90678 41.3361 3.29451C42.0412 3.68218 42.8814 4.23733 43.7417 4.82728C44.6019 5.4175 45.4748 6.04932 46.29 6.57285C47.1052 7.09648 47.812 7.52772 48.6416 7.75004C49.4713 7.97262 50.2922 7.93843 51.26 7.89282C52.2278 7.84747 53.3017 7.76031 54.3417 7.68003C55.3817 7.59793 56.3899 7.53699 57.1944 7.55341C57.9989 7.57166 58.6082 7.74368 58.6194 7.75004C58.6304 7.75629 59.0755 8.18515 59.4922 8.87335C59.9089 9.56209 60.3784 10.4779 60.8283 11.419C61.2784 12.36 61.7202 13.3379 62.1645 14.199C62.6087 15.0601 63.001 15.7844 63.6083 16.3917C64.2157 16.9993 64.9374 17.3914 65.7984 17.8356C66.6593 18.2798 67.6373 18.7221 68.5783 19.1717C69.5194 19.6215 70.4194 20.0727 71.1078 20.489C71.7962 20.9058 72.2435 21.3688 72.25 21.3806C72.2562 21.39 72.4273 22.0015 72.4439 22.8056C72.4606 23.6102 72.4012 24.6156 72.32 25.6557C72.2388 26.6956 72.1341 27.7723 72.0884 28.7401C72.043 29.7078 72.0092 30.5287 72.2312 31.3584C72.4535 32.1876 72.901 32.876 73.4245 33.6913C73.948 34.5068 74.5639 35.3982 75.1539 36.2584C75.7439 37.1187 76.3151 37.9588 76.7028 38.664C77.0906 39.3692 77.2389 39.9872 77.2389 40.0001C77.2389 40.0105 77.0905 40.6119 76.7028 41.3174C76.315 42.0225 75.7439 42.8815 75.1539 43.7418C74.5639 44.602 73.9481 45.4749 73.4245 46.2901C72.901 47.1056 72.4535 47.8121 72.2312 48.6418C72.0088 49.471 72.0426 50.2924 72.0884 51.2601C72.1337 52.2278 72.2392 53.283 72.32 54.323C72.4013 55.363 72.4607 56.3874 72.4439 57.1919C72.4278 57.9965 72.2564 58.6084 72.25 58.6196C72.2437 58.63 71.7962 59.0757 71.1078 59.4924C70.4194 59.9094 69.5194 60.3596 68.5783 60.8096C67.6373 61.2595 66.6594 61.72 65.7984 62.1646C64.9373 62.6087 64.2157 62.9825 63.6083 63.5896C63.0009 64.1972 62.6087 64.9375 62.1645 65.7985C61.7202 66.6597 61.2783 67.6375 60.8283 68.5785C60.3783 69.5197 59.909 70.4196 59.4922 71.108C59.0755 71.7968 58.6306 72.241 58.6194 72.2475C58.6085 72.2527 57.9989 72.4268 57.1944 72.444C56.3899 72.4648 55.3817 72.3971 54.3417 72.3199C53.3017 72.2381 52.2278 72.1338 51.26 72.0885C50.2922 72.0416 49.4713 72.0066 48.6416 72.2313C47.8121 72.4539 47.1052 72.9015 46.29 73.4247C45.4748 73.9483 44.6019 74.5613 43.7417 75.1514C42.8814 75.7416 42.0412 76.2963 41.3361 76.6842C40.631 77.072 40.0129 77.2364 40 77.2364C39.9872 77.2364 39.369 77.0717 38.6639 76.6842C37.9588 76.2963 37.1186 75.7413 36.2583 75.1514C35.3981 74.5612 34.5252 73.9483 33.71 73.4247C32.8948 72.901 32.188 72.4535 31.3583 72.2313C30.5287 72.0087 29.7077 72.0431 28.74 72.0885C27.7722 72.1354 26.6956 72.2391 25.6556 72.3199C24.6156 72.4018 23.6101 72.4601 22.8056 72.444C22.0011 72.4231 21.3917 72.2537 21.3806 72.2475C21.3696 72.2422 20.9057 71.7966 20.4889 71.108C20.0722 70.4193 19.6216 69.5197 19.1717 68.5785C18.7216 67.6375 18.2798 66.6595 17.8355 65.7985C17.3913 64.9374 16.999 64.197 16.3917 63.5896C15.7843 62.9821 15.0626 62.6089 14.2016 62.1646C13.3406 61.7205 12.3627 61.2598 11.4216 60.8096C10.4806 60.3598 9.58055 59.9095 8.89218 59.4924C8.2038 59.0753 7.75647 58.6305 7.75001 58.6196C7.74355 58.6091 7.57006 57.996 7.55337 57.1919C7.53695 56.3873 7.59908 55.363 7.67998 54.323C7.76117 53.283 7.86585 52.2278 7.91164 51.2601C7.95725 50.2924 7.99082 49.4714 7.76887 48.6418C7.54656 47.8117 7.09906 47.1053 6.57553 46.2901C6.05199 45.4746 5.43613 44.602 4.84612 43.7418C4.25608 42.8815 3.68497 42.0225 3.29719 41.3174C2.9094 40.6122 2.76113 40.013 2.76113 40.0001C2.76114 39.9897 2.90949 39.3689 3.29719 38.664C3.68499 37.9588 4.25611 37.1186 4.84612 36.2584C5.43615 35.3982 6.05198 34.5064 6.57553 33.6913C7.09906 32.8757 7.54657 32.188 7.76887 31.3584C7.99118 30.5292 7.95744 29.7078 7.91164 28.7401C7.86603 27.7723 7.7608 26.6956 7.67998 25.6557C7.59879 24.6156 7.53658 23.6101 7.55337 22.8056C7.56979 22.001 7.74363 21.3917 7.75001 21.3806C7.75648 21.3718 8.2038 20.9058 8.89218 20.489C9.58055 20.0721 10.4806 19.6217 11.4216 19.1717C12.3627 18.722 13.3406 18.2798 14.2016 17.8356C15.0626 17.3913 15.7843 16.9993 16.3917 16.3917C16.999 15.7842 17.3913 15.06 17.8355 14.199C18.2798 13.3378 18.7217 12.36 19.1717 11.419C19.6217 10.4779 20.0722 9.56173 20.4889 8.87335C20.9056 8.1846 21.3693 7.75642 21.3806 7.75004C21.3915 7.74378 22.0011 7.56983 22.8056 7.55341C23.6101 7.53517 24.6156 7.60085 25.6556 7.68003C26.6956 7.76213 27.7722 7.8472 28.74 7.89282C29.7077 7.93869 30.5287 7.97445 31.3583 7.75004C32.188 7.52745 32.8948 7.09657 33.71 6.57285C34.5252 6.04923 35.3981 5.41731 36.2583 4.82728C37.1186 4.23705 37.9588 3.6823 38.6639 3.29451C39.3689 2.90678 39.9871 2.76113 40 2.76113ZM28.9528 21.6554C27.0948 21.6992 25.2492 22.4281 23.84 23.8374C20.9306 26.7467 20.9306 31.5092 23.84 34.4186C26.7494 37.328 31.5064 37.3199 34.4158 34.4081C37.3252 31.4988 37.3332 26.7444 34.4239 23.835C32.9237 22.3372 30.9306 21.6085 28.9528 21.6554ZM29.1306 24.395C30.337 24.395 31.5432 24.8601 32.4709 25.7877C34.3261 27.6429 34.3207 30.6049 32.4655 32.4602C30.6103 34.3154 27.6455 34.3235 25.7903 32.4706C23.9351 30.6154 23.9351 27.6453 25.7903 25.79C26.7179 24.8624 27.9242 24.395 29.1306 24.395ZM51.5779 26.8948C51.2683 26.9297 50.9797 27.0683 50.759 27.2881L27.2907 50.7564C27.0346 51.0147 26.8909 51.3638 26.8909 51.7275C26.8909 52.0913 27.0346 52.4403 27.2907 52.6986C27.4189 52.8275 27.5713 52.9297 27.7391 52.9995C27.9069 53.0693 28.0868 53.1052 28.2686 53.1052C28.4503 53.1052 28.6303 53.0693 28.7981 52.9995C28.9659 52.9297 29.1182 52.8275 29.2464 52.6986L52.7039 29.233C52.9608 28.9746 53.1051 28.625 53.1051 28.2606C53.1051 27.8962 52.9608 27.5465 52.7039 27.2881C52.5576 27.1425 52.3805 27.0315 52.1856 26.9635C51.9907 26.8954 51.783 26.8719 51.5779 26.8948ZM50.8694 43.3916C48.9528 43.3934 47.0362 44.1242 45.5815 45.579C42.6721 48.4883 42.6641 53.2454 45.5734 56.1548C48.4828 59.0642 53.2479 59.0642 56.1573 56.1548C59.0667 53.2454 59.0667 48.4803 56.1573 45.5709C54.7026 44.1161 52.786 43.3898 50.8694 43.3916ZM50.8694 46.1339C52.074 46.132 53.2794 46.5936 54.207 47.5212C56.0623 49.3764 56.0623 52.3465 54.207 54.2018C52.3518 56.057 49.3817 56.057 47.5264 54.2018C45.6712 52.3465 45.6766 49.3845 47.5318 47.5293C48.4594 46.6016 49.6648 46.1357 50.8694 46.1339Z" fill="#005774"/>
</svg>
