<svg width="870" height="672" viewBox="0 0 870 672" fill="none" xmlns="http://www.w3.org/2000/svg">
<path d="M329.495 71.5244C329.884 76.5263 333.35 80.7267 338.109 82.3158C344.444 84.4311 350.636 86.8572 356.667 89.5761C361.075 91.5627 366.26 90.9573 369.933 87.8146L415.633 48.7199C420.404 44.6386 427.512 44.915 431.952 49.3545L491.72 109.122C496.159 113.562 496.436 120.67 492.354 125.441L454.853 169.278C451.607 173.072 451.076 178.461 453.283 182.939C456.559 189.585 459.474 196.442 462.002 203.482C463.663 208.107 467.804 211.444 472.703 211.825L529.984 216.287C536.243 216.775 541.074 221.996 541.074 228.275V312.799C541.074 319.078 536.243 324.299 529.984 324.787L472.702 329.249C467.803 329.631 463.662 332.967 462.002 337.592C459.474 344.633 456.559 351.489 453.283 358.135C451.076 362.613 451.607 368.002 454.853 371.796L492.354 415.633C496.435 420.404 496.159 427.512 491.719 431.952L431.951 491.72C427.512 496.159 420.404 496.436 415.633 492.354L369.933 453.259C366.259 450.117 361.075 449.511 356.667 451.498C350.635 454.217 344.443 456.643 338.109 458.758C333.35 460.347 329.884 464.548 329.495 469.549L324.787 529.984C324.299 536.243 319.078 541.074 312.799 541.074H228.275C221.996 541.074 216.775 536.243 216.287 529.984L211.308 466.07C210.936 461.292 207.75 457.222 203.283 455.484C198.114 453.472 193.049 451.249 188.101 448.826C183.628 446.636 178.255 447.173 174.47 450.411L125.441 492.354C120.67 496.435 113.562 496.159 109.122 491.719L49.3544 431.951C44.9149 427.512 44.6385 420.404 48.7198 415.633L92.2701 364.725C95.4047 361.06 96.0157 355.891 94.0461 351.49C92.1138 347.172 90.3314 342.772 88.7054 338.297C87.0332 333.695 82.9023 330.381 78.0208 330L11.0901 324.787C4.83061 324.299 0 319.078 0 312.799V228.275C0 221.996 4.8306 216.775 11.0901 216.287L78.0209 211.073C82.9025 210.693 87.0333 207.378 88.7055 202.776C90.3315 198.302 92.1139 193.902 94.0462 189.584C96.0158 185.182 95.4048 180.013 92.2702 176.349L48.7199 125.441C44.6386 120.67 44.915 113.562 49.3545 109.122L109.122 49.3545C113.562 44.915 120.67 44.6386 125.441 48.7199L174.471 90.6631C178.255 93.9005 183.628 94.4379 188.101 92.248C193.049 89.8252 198.114 87.6024 203.283 85.59C207.749 83.8515 210.936 79.7822 211.308 75.0042L216.287 11.0901C216.775 4.8306 221.996 0 228.275 0H312.799C319.078 0 324.299 4.83061 324.787 11.0901L329.495 71.5244ZM270.537 145.489C201.475 145.489 145.489 201.475 145.489 270.537C145.489 339.599 201.475 395.585 270.537 395.585C339.599 395.585 395.585 339.599 395.585 270.537C395.585 201.475 339.599 145.489 270.537 145.489Z" fill="#005774"/>
<path d="M648.994 306.793C650.126 310 653.133 312.141 656.527 312.347C661.045 312.621 665.524 313.123 669.95 313.845C673.184 314.372 676.472 313.066 678.326 310.364L701.387 276.753C703.795 273.244 708.497 272.178 712.182 274.306L761.795 302.95C765.481 305.078 766.909 309.683 765.074 313.522L748.212 348.801C746.753 351.854 747.35 355.475 749.581 358.019C752.891 361.796 756.002 365.773 758.893 369.939C760.791 372.676 764.087 374.134 767.362 373.524L805.645 366.397C809.829 365.618 813.907 368.189 815.009 372.299L829.836 427.636C830.938 431.747 828.691 436.013 824.679 437.43L787.96 450.399C784.82 451.509 782.694 454.419 782.418 457.739C781.998 462.791 781.293 467.791 780.314 472.717C779.654 476.036 780.948 479.471 783.738 481.385L815.979 503.506C819.488 505.914 820.554 510.616 818.427 514.301L789.782 563.915C787.654 567.6 783.049 569.028 779.21 567.193L742.433 549.615C739.477 548.202 735.976 548.715 733.439 550.789C729.967 553.627 726.339 556.301 722.563 558.798C719.726 560.673 718.194 564.031 718.816 567.374L726.336 607.765C727.114 611.948 724.543 616.027 720.433 617.128L665.096 631.956C660.986 633.057 656.72 630.81 655.303 626.798L640.831 585.828C639.749 582.765 636.949 580.66 633.72 580.305C629.983 579.895 626.277 579.328 622.613 578.61C619.3 577.961 615.877 579.255 613.967 582.038L589.226 618.099C586.818 621.608 582.117 622.674 578.431 620.546L528.818 591.901C525.132 589.774 523.704 585.169 525.54 581.329L545.121 540.361C546.53 537.412 546.023 533.921 543.962 531.385C541.939 528.897 540.001 526.329 538.151 523.685C536.249 520.965 532.963 519.52 529.701 520.127L484.968 528.455C480.784 529.234 476.706 526.663 475.604 522.552L460.777 467.216C459.675 463.105 461.922 458.839 465.934 457.422L508.838 442.268C511.967 441.162 514.09 438.268 514.378 434.961C514.657 431.747 515.052 428.553 515.56 425.388C516.077 422.16 514.771 418.884 512.076 417.035L474.634 391.345C471.125 388.938 470.059 384.236 472.186 380.551L500.831 330.937C502.959 327.252 507.564 325.824 511.403 327.659L550.86 346.518C553.905 347.973 557.517 347.383 560.061 345.164C562.876 342.71 565.802 340.366 568.833 338.142C571.452 336.22 572.824 332.997 572.23 329.804L564.277 287.087C563.499 282.903 566.07 278.825 570.18 277.724L625.517 262.896C629.627 261.795 633.893 264.041 635.31 268.054L648.994 306.793ZM623.37 365.559C578.156 377.674 551.325 424.148 563.44 469.362C575.555 514.576 622.029 541.408 667.243 529.293C712.457 517.178 739.288 470.704 727.173 425.49C715.058 380.276 668.584 353.444 623.37 365.559Z" fill="#005774"/>
</svg>
