<?xml version="1.0" encoding="utf-8"?>
<!-- Generator: Adobe Illustrator 25.4.1, SVG Export Plug-In . SVG Version: 6.00 Build 0)  -->
<svg version="1.2" baseProfile="tiny" id="Layer_1" xmlns="http://www.w3.org/2000/svg" xmlns:xlink="http://www.w3.org/1999/xlink"
	 x="0px" y="0px" viewBox="0 0 600 180" overflow="visible" xml:space="preserve">
<g>
	<path fill="#FFFFFF" d="M348.1,41.8c19.2,1.6,49.3,9.9,49.3,46.6c0,28.8-18.7,47.5-49.3,50.2V41.8 M340.2,7.6h-25.9v0.4v31v102.4
		v31.3v0.1h25.9c54.1,0,91.1-34.4,91.1-84.4C431.3,38.4,394.3,7.6,340.2,7.6L340.2,7.6z"/>
	<polygon fill="#FFFFFF" points="235.1,7.6 197.3,7.6 130.8,172.9 171.7,172.9 215.9,48.7 260.3,172.9 301.8,172.9 	"/>
	<polygon fill="#FFFFFF" points="488.1,31.3 470.2,6.9 428.4,6.9 466.8,60.8 	"/>
	<polygon fill="#FFFFFF" points="467,118.4 426.8,173 468.3,172.9 487.5,147 	"/>
	<polygon fill="#FFFFFF" points="119.5,41.2 119.5,7.6 10.2,7.6 10.2,8.9 10.1,8.9 10.1,171.1 10.2,171.1 10.2,172.9 119.5,172.9 
		119.5,139.2 44.2,139.2 44.2,105.6 119.5,105.6 119.5,72 44.2,72 44.2,41.2 	"/>
	<path fill="#FFFFFF" d="M529.6,89.1l60-82.2h-42.1l-38.6,53.3l0,0l0,0l-21.4,29.1l60.4,83.7l42-0.4L529.6,89.1z M551,13.9h24.8
		l-46.3,63.5l-12.1-17.1L551,13.9z"/>
</g>
</svg>
