<?xml version="1.0" encoding="utf-8"?>
<!-- Generator: Adobe Illustrator 25.4.1, SVG Export Plug-In . SVG Version: 6.00 Build 0)  -->
<svg version="1.2" baseProfile="tiny" id="Layer_1" xmlns="http://www.w3.org/2000/svg" xmlns:xlink="http://www.w3.org/1999/xlink"
	 x="0px" y="0px" viewBox="0 0 600 180" overflow="visible" xml:space="preserve">
<g>
	<path fill="#FFFFFF" d="M348.7,41.3c19.4,1.6,49.9,10,49.9,47.2c0,29.1-18.9,48-49.9,50.8V41.3 M340.7,6.7h-26.2v0.4v31.3v103.6
		v31.6v0.1h26.2c54.7,0,92.2-34.8,92.2-85.4C432.8,37.8,395.4,6.7,340.7,6.7L340.7,6.7z"/>
	<polygon fill="#FFFFFF" points="234.3,6.7 196.1,6.7 128.8,173.8 170.2,173.8 215,48.2 259.8,173.8 301.8,173.8 	"/>
	<polygon fill="#FFFFFF" points="490.3,30.7 472.1,5.9 429.9,5.9 468.7,60.5 	"/>
	<polygon fill="#FFFFFF" points="468.9,118.7 428.3,174 470.3,173.8 489.7,147.6 	"/>
	<polygon fill="#FFFFFF" points="117.4,40.6 117.4,6.7 6.8,6.7 6.8,7.9 6.7,7.9 6.7,172 6.8,172 6.8,173.8 117.4,173.8 117.4,139.8 
		41.2,139.8 41.2,105.8 117.4,105.8 117.4,71.8 41.2,71.8 41.2,40.6 	"/>
	<g>
		<polygon fill="#005774" points="593,5.9 550.4,5.9 511.3,59.9 532.1,89.3 		"/>
		<polygon fill="#80D6F2" points="511.3,59.9 489.7,89.3 550.8,174.1 593.3,173.7 		"/>
	</g>
</g>
</svg>
