<?xml version="1.0" encoding="utf-8"?>
<!-- Generator: Adobe Illustrator 25.4.1, SVG Export Plug-In . SVG Version: 6.00 Build 0)  -->
<svg version="1.2" baseProfile="tiny" id="Layer_1" xmlns="http://www.w3.org/2000/svg" xmlns:xlink="http://www.w3.org/1999/xlink"
	 x="0px" y="0px" viewBox="0 0 312 371" overflow="visible" xml:space="preserve">
<g>
	<g>
		<polygon fill="#2E2D2D" points="235.2,9.7 197.4,9.7 130.7,175.3 171.7,175.3 216.1,50.9 260.5,175.3 302.1,175.3 		"/>
		<polygon fill="#2E2D2D" points="119.4,43.4 119.4,9.7 9.8,9.7 9.8,11 9.7,11 9.7,173.6 9.8,173.6 9.8,175.3 119.4,175.3 
			119.4,141.6 43.9,141.6 43.9,107.9 119.4,107.9 119.4,74.2 43.9,74.2 43.9,43.4 		"/>
	</g>
	<g>
		<path fill="#2E2D2D" d="M45,232.6c19.3,1.6,49.4,9.9,49.4,46.8c0,28.8-18.7,47.6-49.4,50.3V232.6 M37,198.3H11v0.4v31v102.7v31.3
			v0.1h26c54.2,0,91.3-34.4,91.3-84.6C128.3,229.2,91.2,198.3,37,198.3L37,198.3z"/>
		<polygon fill="#2E2D2D" points="199.3,222.1 181.3,197.6 139.4,197.6 177.9,251.6 		"/>
		<polygon fill="#2E2D2D" points="178.1,309.4 137.8,364.1 179.4,364 198.7,338 		"/>
		<g>
			<polygon fill="#005774" points="301,197.6 258.8,197.6 220,251.1 240.7,280.2 			"/>
			<polygon fill="#80D6F2" points="220,251.1 198.6,280.3 259.2,364.2 301.3,363.8 			"/>
		</g>
	</g>
</g>
</svg>
