<?xml version="1.0" encoding="utf-8"?>
<!-- Generator: Adobe Illustrator 25.4.1, SVG Export Plug-In . SVG Version: 6.00 Build 0)  -->
<svg version="1.2" baseProfile="tiny" id="Layer_1" xmlns="http://www.w3.org/2000/svg" xmlns:xlink="http://www.w3.org/1999/xlink"
	 x="0px" y="0px" viewBox="0 0 312 371" overflow="visible" xml:space="preserve">
<g>
	<g>
		<polygon fill="#FFFFFF" points="234.3,10.7 196.6,10.7 130.3,175.5 171,175.5 215.2,51.7 259.4,175.5 300.8,175.5 		"/>
		<polygon fill="#FFFFFF" points="119,44.2 119,10.7 10,10.7 10,11.9 9.9,11.9 9.9,173.7 10,173.7 10,175.5 119,175.5 119,141.9 
			43.9,141.9 43.9,108.4 119,108.4 119,74.9 43.9,74.9 43.9,44.2 		"/>
	</g>
	<g>
		<path fill="#FFFFFF" d="M45,232.5c19.2,1.6,49.2,9.9,49.2,46.5c0,28.7-18.6,47.3-49.2,50.1V232.5 M37.1,198.4H11.2v0.4v30.9v102.2
			V363v0.1h25.9c53.9,0,90.9-34.3,90.9-84.2C127.9,229.1,91,198.4,37.1,198.4L37.1,198.4z"/>
		<polygon fill="#FFFFFF" points="198.5,222 180.6,197.6 138.9,197.6 177.2,251.4 		"/>
		<polygon fill="#FFFFFF" points="177.4,308.8 137.3,363.3 178.7,363.1 197.9,337.3 		"/>
		<path fill="#FFFFFF" d="M239.9,279.6l59.8-81.9h-42l-38.5,53.2l0,0l0,0l-21.3,29l60.3,83.5L300,363L239.9,279.6z M261.2,204.6H286
			l-46.2,63.3l-12.1-17L261.2,204.6z"/>
	</g>
</g>
</svg>
