<?xml version="1.0" encoding="utf-8"?>
<!-- Generator: Adobe Illustrator 25.4.1, SVG Export Plug-In . SVG Version: 6.00 Build 0)  -->
<svg version="1.2" baseProfile="tiny" id="Layer_1" xmlns="http://www.w3.org/2000/svg" xmlns:xlink="http://www.w3.org/1999/xlink"
	 x="0px" y="0px" viewBox="0 0 307 371" overflow="visible" xml:space="preserve">
<g>
	<g>
		<g>
			<path fill="#FFFFFF" d="M300.3,362.7H7V9h293.3V362.7z M18.1,351.7h271.2V20H18.1V351.7z"/>
		</g>
	</g>
	<g>
		<g>
			<polygon fill="#FFFFFF" points="216.3,45.8 186.4,45.8 133.8,176.6 166.1,176.6 201.2,78.4 236.3,176.6 269.2,176.6 			"/>
			<polygon fill="#FFFFFF" points="124.8,72.4 124.8,45.8 38.2,45.8 38.2,46.8 38.2,46.8 38.2,175.3 38.2,175.3 38.2,176.6 
				124.8,176.6 124.8,150 65.2,150 65.2,123.4 124.8,123.4 124.8,96.8 65.2,96.8 65.2,72.4 			"/>
		</g>
		<g>
			<path fill="#FFFFFF" d="M66,221.9c15.2,1.2,39.1,7.8,39.1,36.9c0,22.8-14.8,37.6-39.1,39.7V221.9 M59.7,194.8H39.2v0.3v24.5v81.1
				v24.8v0.1h20.5c42.8,0,72.1-27.2,72.1-66.8C131.9,219.2,102.5,194.8,59.7,194.8L59.7,194.8z"/>
			<polygon fill="#FFFFFF" points="187.9,213.6 173.7,194.3 140.6,194.3 171,236.9 			"/>
			<polygon fill="#FFFFFF" points="171.2,282.5 139.3,325.8 172.2,325.7 187.5,305.2 			"/>
			<g>
				<polygon fill="#005774" points="268.3,194.3 234.9,194.3 204.3,236.5 220.7,259.5 				"/>
				<polygon fill="#80D6F2" points="204.3,236.5 187.4,259.5 235.3,325.9 268.5,325.5 				"/>
			</g>
		</g>
	</g>
</g>
</svg>
