<?xml version="1.0" encoding="utf-8"?>
<!-- Generator: Adobe Illustrator 25.4.1, SVG Export Plug-In . SVG Version: 6.00 Build 0)  -->
<svg version="1.2" baseProfile="tiny" id="Layer_1" xmlns="http://www.w3.org/2000/svg" xmlns:xlink="http://www.w3.org/1999/xlink"
	 x="0px" y="0px" viewBox="0 0 307 371" overflow="visible" xml:space="preserve">
<g>
	<g>
		<g>
			<path fill="#FFFFFF" d="M298.2,360H8.8V11h289.4V360z M19.7,349.1h267.5V21.9H19.7V349.1z"/>
		</g>
	</g>
	<g>
		<g>
			<polygon fill="#FFFFFF" points="215.3,47.4 185.8,47.4 133.8,176.4 165.8,176.4 200.4,79.5 235,176.4 267.5,176.4 			"/>
			<polygon fill="#FFFFFF" points="125.1,73.6 125.1,47.4 39.6,47.4 39.6,48.3 39.5,48.3 39.5,175.1 39.6,175.1 39.6,176.4 
				125.1,176.4 125.1,150.1 66.2,150.1 66.2,123.9 125.1,123.9 125.1,97.6 66.2,97.6 66.2,73.6 			"/>
		</g>
		<g>
			<path fill="#FFFFFF" d="M67,221.1c15,1.2,38.5,7.7,38.5,36.4c0,22.5-14.6,37.1-38.5,39.2V221.1 M60.8,194.4H40.6v0.3v24.2v80
				v24.4v0.1h20.3c42.2,0,71.2-26.8,71.2-65.9C132,218.4,103,194.4,60.8,194.4L60.8,194.4z"/>
			<polygon fill="#FFFFFF" points="187.3,212.9 173.2,193.8 140.6,193.8 170.6,235.9 			"/>
			<polygon fill="#FFFFFF" points="170.8,280.9 139.4,323.6 171.8,323.5 186.8,303.2 			"/>
			<path fill="#FFFFFF" d="M219.7,258l46.8-64.2h-32.9l-30.2,41.7l0,0l0,0l-16.7,22.8l47.2,65.4l32.8-0.3L219.7,258z M236.4,199.3
				h19.4l-36.2,49.6l-9.5-13.3L236.4,199.3z"/>
		</g>
	</g>
</g>
</svg>
