<?xml version="1.0" encoding="utf-8"?>
<!-- Generator: Adobe Illustrator 25.4.1, SVG Export Plug-In . SVG Version: 6.00 Build 0)  -->
<svg version="1.2" baseProfile="tiny" id="Layer_1" xmlns="http://www.w3.org/2000/svg" xmlns:xlink="http://www.w3.org/1999/xlink"
	 x="0px" y="0px" viewBox="0 0 218 218" overflow="visible" xml:space="preserve">
<g>
	<path fill="#80D6F2" d="M84.3,105.1l25.2-34.4l39.8-55c-12.4-5.4-26-8.4-40.4-8.4c-14,0-27.4,2.8-39.5,8l15.6,21.2L59.8,71.4
		L36.2,38.1C18.4,56.5,7.4,81.4,7.4,109c0,25.8,9.7,49.4,25.6,67.4l27.1-36.9l24.3,33.8l-20.1,27c13.5,6.6,28.7,10.4,44.7,10.4
		c15.8,0,30.8-3.6,44.2-10.1L84.3,105.1z"/>
	<path fill="#005774" d="M182.4,38.7l-48.2,66.1l51.3,71.2c15.7-17.9,25.2-41.3,25.2-66.9C210.6,81.7,199.8,57,182.4,38.7z"/>
</g>
</svg>
