<svg width="81" height="80" viewBox="0 0 81 80" fill="none" xmlns="http://www.w3.org/2000/svg">
<path d="M14.3822 78.7707V55.0058C14.3822 54.3363 13.8319 53.7859 13.1623 53.7859H1.21994C0.550377 53.7859 0 54.3362 0 55.0058V78.766C0 79.4356 0.55033 79.986 1.21994 79.986H13.1717C13.8412 79.9905 14.3822 79.4495 14.3822 78.7707ZM11.9424 77.5462H2.43085V56.2257H11.9424V77.5462Z" fill="#005774"/>
<path d="M35.0466 79.9904C35.7162 79.9904 36.2666 79.4401 36.2666 78.7705V41.3891C36.2666 40.7195 35.7163 40.1691 35.0466 40.1691L23.0949 40.1646C22.4254 40.1646 21.875 40.7149 21.875 41.3845V78.7659C21.875 79.4354 22.4253 79.9858 23.0949 79.9858L35.0466 79.9904ZM24.3152 42.609H33.8268V77.5507H24.3152V42.609Z" fill="#005774"/>
<path d="M56.9408 48.6083H45.0031C44.3336 48.6083 43.7832 49.1586 43.7832 49.8282V78.78C43.7832 79.4496 44.3335 79.9999 45.0031 79.9999H56.9549C57.6244 79.9999 58.1748 79.4496 58.1748 78.78V49.8188C58.161 49.1493 57.6241 48.6083 56.9408 48.6083ZM55.7208 77.546H46.2092V51.0385H55.7208V77.546Z" fill="#005774"/>
<path d="M78.9455 31.7363H67.0031C66.3336 31.7363 65.7832 32.2867 65.7832 32.9563V78.7672C65.7832 79.4368 66.3335 79.9872 67.0031 79.9872L78.9455 79.9918C79.615 79.9918 80.1654 79.4414 80.1654 78.7718V32.9609C80.1654 32.2775 79.6242 31.7363 78.9455 31.7363ZM77.7209 77.5473H68.2094L68.2139 34.1807H77.7255L77.7209 77.5473Z" fill="#005774"/>
<path d="M6.31413 45.6135C9.79962 45.6135 12.6292 42.7838 12.6292 39.2984C12.6292 38.2757 12.3586 37.3264 11.9229 36.4688L23.1956 27.6635C24.3008 28.6266 25.7317 29.2227 27.3047 29.2227C29.4052 29.2227 31.2625 28.1771 32.4136 26.5949L43.0717 31.4928C42.9524 31.9606 42.8836 32.4559 42.8836 32.9604C42.8836 36.4459 45.7133 39.2754 49.1987 39.2754C52.684 39.2754 55.5137 36.4458 55.5137 32.9604C55.5137 31.5295 55.0184 30.2271 54.2112 29.1585L69.7308 11.7358C70.671 12.2861 71.7488 12.6301 72.9228 12.6301C76.4083 12.6301 79.2378 9.8004 79.2378 6.31503C79.2378 2.82967 76.4082 0 72.9228 0C69.4374 0 66.6078 2.82967 66.6078 6.31503C66.6078 7.74595 67.1031 9.04831 67.9103 10.1169L52.3953 27.535C51.4552 26.9846 50.3774 26.6407 49.2126 26.6407C47.1122 26.6407 45.2548 27.6863 44.1037 29.2685L33.4457 24.3705C33.5649 23.9028 33.6337 23.4075 33.6337 22.903C33.6337 19.4175 30.804 16.588 27.3187 16.588C23.8333 16.588 21.0036 19.4176 21.0036 22.903C21.0036 23.9257 21.2742 24.875 21.7099 25.7327L10.4281 34.5379C9.32283 33.5749 7.89192 32.9787 6.31895 32.9787C2.83346 32.9787 0.00391182 35.8084 0.00391182 39.2937C-0.000673977 42.7838 2.82865 45.6135 6.31413 45.6135ZM72.9314 2.43587C75.0685 2.43587 76.8067 4.17403 76.8067 6.31114C76.8067 8.44824 75.0685 10.1864 72.9314 10.1864C70.7943 10.1864 69.0561 8.44824 69.0561 6.31114C69.0561 4.16946 70.7943 2.43587 72.9314 2.43587ZM49.217 29.0854C51.3541 29.0854 53.0923 30.8235 53.0923 32.9606C53.0923 35.0977 51.3541 36.8359 49.217 36.8359C47.0799 36.8359 45.3417 35.0977 45.3417 32.9606C45.3417 30.8235 47.0799 29.0854 49.217 29.0854ZM27.3189 19.0327C29.456 19.0327 31.1941 20.7708 31.1941 22.9079C31.1941 23.4812 31.0657 24.0223 30.8318 24.5177C30.2219 25.843 28.8827 26.7832 27.3234 26.7832C25.1863 26.7832 23.4482 25.045 23.4482 22.9079C23.4436 20.7708 25.1817 19.0327 27.3189 19.0327ZM6.31413 35.4234C8.45123 35.4234 10.1894 37.1616 10.1894 39.2987C10.1894 41.4358 8.45123 43.1739 6.31413 43.1739C4.17703 43.1739 2.43887 41.4358 2.43887 39.2987C2.44345 37.1616 4.18161 35.4234 6.31413 35.4234Z" fill="#005774"/>
</svg>
