<svg width="81" height="80" viewBox="0 0 81 80" fill="none" xmlns="http://www.w3.org/2000/svg">
<path d="M40.1124 2.87531e-06C32.1783 3.44378e-06 24.4224 2.34634 17.8256 6.74227C11.2288 11.1382 6.0875 17.3862 3.05193 24.6962C0.0163686 32.0061 -0.777098 40.0495 0.771881 47.8092C2.32086 55.5688 6.1427 62.6961 11.754 68.2896C17.3654 73.8831 24.5142 77.6915 32.2962 79.2332C40.0782 80.7749 48.144 79.9806 55.4733 76.9508C62.8026 73.921 69.0663 68.7917 73.4721 62.2118C77.8778 55.6318 80.2278 47.8967 80.2248 39.9848C80.2248 34.7327 79.1872 29.532 77.1712 24.6798C75.1551 19.8276 72.2002 15.4191 68.4753 11.7059C64.7503 7.99279 60.3282 5.04785 55.4616 3.03931C50.5951 1.03078 45.3793 -0.00198884 40.1124 2.87531e-06ZM40.1124 76.2244C32.9248 76.2244 25.8985 74.099 19.9222 70.1169C13.9459 66.1349 9.28793 60.475 6.53733 53.8531C3.78674 47.2312 3.06706 39.9446 4.4693 32.9148C5.87154 25.8851 9.33272 19.4278 14.4152 14.3596C19.4976 9.29139 25.973 5.83991 33.0226 4.4416C40.0721 3.04329 47.3792 3.76095 54.0197 6.50384C60.6602 9.24672 66.336 13.8916 70.3292 19.8512C74.3224 25.8108 76.4538 32.8173 76.4538 39.9848C76.4458 49.5937 72.6144 58.8067 65.8008 65.6012C58.9872 72.3957 49.7483 76.2164 40.1124 76.2244Z" fill="#005774"/>
<path d="M47.6819 31.1002C47.6819 31.4541 47.8229 31.7935 48.0738 32.0438C48.3247 32.294 48.6651 32.4346 49.02 32.4346C49.3749 32.4346 49.7152 32.294 49.9662 32.0438C50.2171 31.7935 50.3581 31.4541 50.3581 31.1002C50.3531 28.6218 49.445 26.2296 47.803 24.3691C46.161 22.5086 43.897 21.3064 41.4324 20.9865V17.8174C41.4524 17.6313 41.4328 17.443 41.3751 17.2649C41.3173 17.0868 41.2226 16.9228 41.0971 16.7835C40.9717 16.6443 40.8182 16.5329 40.6467 16.4567C40.4753 16.3805 40.2896 16.3411 40.1019 16.3411C39.9142 16.3411 39.7285 16.3805 39.557 16.4567C39.3856 16.5329 39.2321 16.6443 39.1066 16.7835C38.9811 16.9228 38.8864 17.0868 38.8287 17.2649C38.7709 17.443 38.7514 17.6313 38.7714 17.8174V21.032C36.8083 21.2946 34.9638 22.1196 33.4617 23.407C31.9595 24.6944 30.8643 26.3888 30.3089 28.2847C29.7536 30.1806 29.7618 32.1964 30.3328 34.0877C30.9037 35.979 32.0128 37.6644 33.5255 38.9395C34.7425 39.9728 36.2019 40.6822 37.7678 41.0017L38.7714 41.1533V56.3163C37.0234 56.001 35.4412 55.0853 34.2996 53.7281C33.158 52.3708 32.5291 50.6578 32.5219 48.8864C32.5219 48.5325 32.3809 48.1931 32.13 47.9429C31.879 47.6927 31.5387 47.5521 31.1838 47.5521C30.8289 47.5521 30.4886 47.6927 30.2376 47.9429C29.9867 48.1931 29.8457 48.5325 29.8457 48.8864C29.8507 51.3649 30.7588 53.757 32.4007 55.6176C34.0427 57.4781 36.3068 58.6802 38.7714 59.0002V62.2147C38.7514 62.4008 38.7709 62.5891 38.8287 62.7672C38.8864 62.9454 38.9811 63.1094 39.1066 63.2486C39.2321 63.3879 39.3856 63.4992 39.557 63.5755C39.7285 63.6517 39.9142 63.6911 40.1019 63.6911C40.2896 63.6911 40.4753 63.6517 40.6467 63.5755C40.8182 63.4992 40.9717 63.3879 41.0971 63.2486C41.2226 63.1094 41.3173 62.9454 41.3751 62.7672C41.4328 62.5891 41.4524 62.4008 41.4324 62.2147V59.0002C43.7484 58.7044 45.8934 57.6278 47.5113 55.949C49.1292 54.2701 50.1228 52.09 50.3269 49.7705C50.5311 47.451 49.9337 45.1316 48.6339 43.1973C47.3341 41.263 45.41 39.8302 43.181 39.1366C42.6122 38.9527 42.0264 38.8257 41.4324 38.7575V23.5946C43.1933 23.9122 44.7854 24.839 45.9286 26.2119C47.0717 27.5848 47.6926 29.3158 47.6819 31.1002ZM38.7714 38.4543H38.2848C37.1593 38.2121 36.1133 37.6905 35.2437 36.938C34.3969 36.2229 33.7152 35.3337 33.2454 34.3313C32.7756 33.3289 32.5288 32.237 32.5219 31.1306C32.5291 29.3591 33.158 27.6462 34.2996 26.2889C35.4412 24.9317 37.0234 24.016 38.7714 23.7007V38.4543ZM42.3751 41.6688C43.975 42.1936 45.3548 43.2333 46.298 44.6247C47.2412 46.016 47.6944 47.6803 47.5866 49.3563C47.4787 51.0323 46.8158 52.6251 45.702 53.8848C44.5881 55.1445 43.0864 55.9997 41.4324 56.3163V41.4566C41.7507 41.5079 42.0656 41.5788 42.3751 41.6688Z" fill="#005774"/>
</svg>
