<svg width="80" height="80" viewBox="0 0 80 80" fill="none" xmlns="http://www.w3.org/2000/svg">
<path d="M40 0C17.9449 0 0 17.9449 0 40C0 62.0551 17.9449 80 40 80C62.0551 80 80 62.0551 80 40C80 17.9449 62.0551 0 40 0ZM40 77.2422C19.465 77.2422 2.75777 60.535 2.75777 40C2.75777 19.465 19.465 2.75777 40 2.75777C60.535 2.75777 77.2422 19.465 77.2422 40C77.2422 60.535 60.535 77.2422 40 77.2422Z" fill="#005774"/>
<path d="M58.9987 32.4935H47.5086V21.0033C47.5086 20.2413 46.8913 19.624 46.1292 19.624H33.8738C33.1117 19.624 32.4944 20.2413 32.4944 21.0033V32.4935H21.0043C20.2422 32.4935 19.625 33.1107 19.625 33.8728V46.1283C19.625 46.8903 20.2422 47.5076 21.0043 47.5076H32.4944V58.9977C32.4944 59.7598 33.1117 60.377 33.8738 60.377H46.1292C46.8913 60.377 47.5086 59.7598 47.5086 58.9977V47.5076H58.9987C59.7607 47.5076 60.378 46.8903 60.378 46.1283V33.8728C60.378 33.1107 59.7607 32.4935 58.9987 32.4935ZM57.6194 44.7489H46.1292C45.3672 44.7489 44.7499 45.3662 44.7499 46.1283V57.6184H35.2531V46.1283C35.2531 45.3662 34.6358 44.7489 33.8738 44.7489H22.3837V35.2521H33.8738C34.6358 35.2521 35.2531 34.6349 35.2531 33.8728V22.3827H44.7499V33.8728C44.7499 34.6349 45.3672 35.2521 46.1292 35.2521H57.6194V44.7489Z" fill="#005774"/>
</svg>
