<svg width="85" height="81" viewBox="0 0 85 81" fill="none" xmlns="http://www.w3.org/2000/svg">
<mask id="path-1-outside-1_379_606" maskUnits="userSpaceOnUse" x="-0.800781" y="-0.800049" width="86" height="82" fill="black">
<rect fill="white" x="-0.800781" y="-0.800049" width="86" height="82"/>
<path fill-rule="evenodd" clip-rule="evenodd" d="M81.7232 33.9434C82.1751 33.065 82.2921 32.0182 81.9774 31.0074C81.9613 30.9713 81.9532 30.9352 81.9411 30.8951C81.5982 29.8924 80.8841 29.1183 80.0005 28.669C79.1169 28.2198 78.0638 28.1035 77.0471 28.4164C77.0108 28.4324 76.9745 28.4404 76.9341 28.4525C75.9255 28.7934 75.1468 29.5033 74.6949 30.3817C74.2349 31.2761 74.122 32.343 74.4568 33.3738C74.7917 34.4046 75.5179 35.1987 76.4176 35.656C77.3173 36.1133 78.3906 36.2256 79.4275 35.8927C80.4644 35.5598 81.2632 34.8378 81.7232 33.9434ZM83.906 30.3256C84.4143 31.8898 84.2409 33.5103 83.5469 34.8659C82.8529 36.2216 81.6345 37.3166 80.061 37.8259C78.4875 38.3353 76.8575 38.1588 75.4898 37.469C74.1261 36.7791 73.0246 35.5678 72.5122 34.0036C71.9998 32.4394 72.1774 30.8189 72.8713 29.4593C73.5653 28.1036 74.7838 27.0087 76.3572 26.4993H76.3613C77.9347 25.9899 79.5648 26.1664 80.9285 26.8562C82.2921 27.5461 83.3936 28.7574 83.906 30.3216L83.906 30.3256ZM16.0481 74.8621C16.2054 75.8528 16.746 76.7833 17.6255 77.4171C18.5091 78.0548 19.5662 78.2754 20.5628 78.1189C21.5593 77.9625 22.4954 77.4251 23.1329 76.5508C23.7744 75.6724 23.9963 74.6215 23.8389 73.6308C23.6816 72.6401 23.1409 71.7096 22.2614 71.0759C21.3778 70.4381 20.3208 70.2175 19.3242 70.374C18.3276 70.5304 17.3916 71.0679 16.7541 71.9422C16.1126 72.8206 15.8907 73.8714 16.0481 74.8621ZM16.4273 79.0656C15.0878 78.0989 14.2729 76.6871 14.0348 75.179C13.7967 73.6709 14.1316 72.0786 15.0999 70.751C16.0722 69.4194 17.4924 68.6093 19.0095 68.3726C20.5265 68.1359 22.1282 68.4688 23.4637 69.4314C24.8032 70.398 25.6181 71.8098 25.8562 73.318C26.0943 74.8261 25.7594 76.4183 24.7911 77.7459C23.8188 79.0776 22.3986 79.8877 20.8815 80.1244C19.3645 80.361 17.7628 80.0281 16.4273 79.0656ZM4.39965 28.6733C3.49993 29.1306 2.77775 29.9248 2.43887 30.9556C2.10399 31.9863 2.21697 33.0493 2.67691 33.9477C3.13685 34.8421 3.93576 35.56 4.97265 35.8969C6.00954 36.2298 7.07876 36.1175 7.98251 35.6603C8.88223 35.203 9.60441 34.4088 9.94329 33.3781C10.2782 32.3473 10.1652 31.2844 9.70525 30.3859C9.24531 29.4915 8.4464 28.7736 7.40951 28.4367C6.37262 28.1038 5.3034 28.2161 4.39965 28.6733ZM0.494196 30.3258C1.00659 28.7616 2.10401 27.5503 3.47173 26.8605C4.83541 26.1706 6.46537 25.9941 8.04296 26.5035H8.047C9.62046 27.0129 10.8349 28.1078 11.5289 29.4635C12.2228 30.8191 12.4003 32.4395 11.888 34.0078V34.0118C11.3756 35.576 10.2741 36.7833 8.91043 37.4732C7.54674 38.1631 5.91678 38.3395 4.33919 37.8301C2.76573 37.3208 1.54727 36.2298 0.853286 34.8702C0.159328 33.5145 -0.0181959 31.8941 0.494196 30.3258ZM27.55 26.2829C26.9851 26.0382 26.4647 25.6732 26.0289 25.1879C25.3672 24.458 24.996 23.5676 24.9073 22.6571C24.641 22.7293 24.3788 22.8497 24.1448 23.0181C21.5222 24.8711 19.3718 26.8365 17.6934 28.9061C16.0352 30.9516 14.8329 33.1054 14.0945 35.3676C13.34 37.6738 13.0697 40.0643 13.2795 42.535C13.4934 45.0298 14.1954 47.6007 15.3897 50.2599C15.6035 50.7412 15.9585 51.1182 16.3822 51.3588C16.4185 51.3749 16.4508 51.3949 16.483 51.415C16.5637 51.4551 16.6444 51.4912 16.7251 51.5233C17.2819 51.7358 17.9153 51.7439 18.5085 51.5032C18.5488 51.4792 18.5932 51.4631 18.6416 51.4471C19.1379 51.2104 19.5171 50.8254 19.7471 50.3721C19.7632 50.332 19.7794 50.2959 19.8036 50.2558L19.8076 50.2518C19.8237 50.2157 19.8358 50.1836 19.852 50.1475C20.0658 49.594 20.0739 48.9644 19.8318 48.3747C19.8076 48.3266 19.7874 48.2824 19.7673 48.2303C19.618 47.8934 19.4848 47.5765 19.3638 47.2757C19.2428 46.9669 19.1258 46.65 19.0128 46.3131C18.9482 46.1607 18.924 45.9882 18.9442 45.8158C19.0088 45.2582 19.5171 44.8572 20.078 44.9213L24.9881 45.4829L29.2768 32.3678L25.2059 30.0816C25.0809 30.0214 24.9679 29.9332 24.8751 29.8169C24.516 29.3837 24.5806 28.746 25.0163 28.3891C25.3391 28.1243 25.6497 27.8797 25.9523 27.647C26.267 27.4104 26.5979 27.1657 26.9489 26.9171C27.199 26.7406 27.4048 26.524 27.5662 26.2833L27.55 26.2829ZM54.4281 24.5342C54.1457 24.458 53.8794 24.3296 53.6293 24.1491C53.2944 23.9005 52.9595 23.6638 52.6246 23.4352C52.3059 23.2146 51.971 22.998 51.6241 22.7774C51.148 22.4766 50.5186 22.617 50.216 23.0863C50.1433 23.1986 50.0949 23.3229 50.0707 23.4472L49.1347 28.0357H35.2551L34.2747 23.2267C34.1658 22.6772 33.6251 22.3202 33.0764 22.4325C32.9231 22.4646 32.7859 22.5248 32.6689 22.613C32.3865 22.8216 32.1 23.0462 31.8055 23.2828C31.4948 23.5355 31.2084 23.7802 30.9501 24.0128C30.4539 24.458 29.8245 24.6586 29.2072 24.6265C29.1588 24.6225 29.1144 24.6185 29.066 24.6144C29.0418 24.6104 29.0176 24.6064 28.9933 24.6064C28.4567 24.5302 27.9403 24.2735 27.545 23.8363C27.0971 23.343 26.8954 22.7174 26.9277 22.1037C26.9599 21.494 27.2262 20.8924 27.7225 20.4512C29.9052 18.4939 32.1485 17.0339 34.4602 16.0633C36.7478 15.1047 39.1202 14.6235 41.5692 14.6235C43.9617 14.6235 46.3946 15.0927 48.8638 16.0273C51.3693 16.9779 53.9111 18.4057 56.4932 20.3109C56.7272 20.4834 56.9209 20.6919 57.0742 20.9206C56.231 21.2855 55.4967 21.9112 55.0004 22.7656C54.6736 23.3311 54.484 23.9327 54.4235 24.5424L54.4281 24.5342ZM44.9872 3.38461C44.273 2.67468 43.2886 2.23749 42.1993 2.23749C41.1099 2.23749 40.1255 2.67467 39.4114 3.38461C38.6972 4.09453 38.2575 5.07314 38.2575 6.15609C38.2575 7.23903 38.6972 8.21765 39.4114 8.92757C40.1255 9.63749 41.1099 10.0747 42.1993 10.0747C43.2886 10.0747 44.273 9.6375 44.9872 8.92757C45.7013 8.21764 46.1411 7.23903 46.1411 6.15609C46.1411 5.07314 45.7013 4.09452 44.9872 3.38461ZM42.1993 0.199951C43.8535 0.199951 45.3503 0.865756 46.4356 1.94465C47.521 3.02359 48.1907 4.5116 48.1907 6.15609C48.1907 7.80057 47.5209 9.28858 46.4356 10.3675C45.3503 11.4465 43.8535 12.1122 42.1993 12.1122C40.545 12.1122 39.0482 11.4464 37.9629 10.3675C36.8775 9.28858 36.2078 7.80057 36.2078 6.15609C36.2078 4.5116 36.8776 3.02359 37.9629 1.94465C39.0482 0.865715 40.545 0.199951 42.1993 0.199951ZM41.5214 67.0329C41.9047 67.3979 42.167 67.8913 42.2396 68.4488C42.2436 68.4889 42.2477 68.533 42.2517 68.5731C42.3042 69.2108 42.0984 69.8084 41.7232 70.2696C41.6586 70.3458 41.59 70.4221 41.5174 70.4902L41.4811 70.5263C41.1139 70.8632 40.6379 71.0919 40.1013 71.144H40.0973C37.1843 71.4528 34.5012 71.3205 32.0522 70.7509C29.6274 70.1894 27.4245 69.1908 25.4476 67.7628C23.511 66.363 21.8205 64.5662 20.3802 62.3682C18.9196 60.1422 17.7052 57.503 16.741 54.4468C16.6522 54.1661 16.6199 53.8853 16.632 53.6086C17.5277 53.8051 18.492 53.7289 19.3958 53.3318H19.3998C19.9969 53.0671 20.5053 52.6861 20.9127 52.2329C21.0943 52.4575 21.2395 52.7182 21.3283 53.011C21.4453 53.384 21.5744 53.773 21.7197 54.1741C21.8609 54.5792 22.0021 54.9522 22.1352 55.2931C22.341 55.8145 22.9341 56.0752 23.4585 55.8706C23.5876 55.8185 23.7046 55.7463 23.7974 55.6541L27.2632 52.4935L38.4873 60.5994L36.4377 65.0676C36.2037 65.5769 36.4296 66.1785 36.942 66.4112C37.0913 66.4794 37.2486 66.5075 37.406 66.5034C37.7772 66.4994 38.1322 66.4874 38.4711 66.4673C38.818 66.4473 39.1691 66.4192 39.5281 66.3791C39.5725 66.3751 39.6169 66.3711 39.6572 66.3671C40.2987 66.3149 40.8998 66.5195 41.3638 66.8925C41.4041 66.9246 41.4445 66.9607 41.4808 66.9928C41.4929 67.0048 41.505 67.0168 41.5171 67.0289L41.5214 67.0329ZM68.6867 50.7934C68.8602 50.5768 69.0014 50.3322 69.0942 50.0554C70.119 47.0232 70.7 44.1795 70.8331 41.5203C70.9663 38.8932 70.6637 36.4506 69.9213 34.1885C69.1668 31.8743 67.9726 29.7846 66.3467 27.9115C64.7127 26.0345 62.6389 24.37 60.1213 22.926C60.1012 22.918 60.085 22.9059 60.0648 22.8979C59.4879 22.569 58.8343 22.5008 58.2372 22.6613C57.6401 22.8217 57.1034 23.2027 56.7726 23.7763C56.4781 24.2816 56.3933 24.8512 56.4861 25.3846C56.4902 25.4087 56.4942 25.4287 56.4982 25.4528C56.5063 25.5009 56.5184 25.549 56.5305 25.5972C56.6919 26.1908 57.0752 26.7243 57.6521 27.0531V27.0572C57.9829 27.2497 58.3057 27.4422 58.6123 27.6347C58.9392 27.8433 59.2458 28.0478 59.5242 28.2444V28.2484C59.6412 28.3326 59.7461 28.4409 59.8187 28.5773C60.0931 29.0666 59.9196 29.6842 59.4314 29.957L55.1304 32.3716L59.4192 45.4867L64.1195 44.9532V44.9572C64.2406 44.9452 64.3656 44.9492 64.4907 44.9813C65.0354 45.1217 65.3662 45.6752 65.225 46.2166C65.1161 46.6297 65.0112 47.0108 64.9063 47.3637C64.8014 47.7167 64.6763 48.1057 64.5311 48.5309C64.4342 48.8196 64.3939 49.1164 64.41 49.4052C65.0112 49.2729 65.6486 49.2648 66.2861 49.4012C67.2544 49.6058 68.0775 50.1071 68.6907 50.793L68.6867 50.7934ZM42.199 72.5242C42.4169 72.6605 42.6468 72.7728 42.8889 72.8731C43.3852 73.0696 43.9298 73.1819 44.5028 73.1899C47.9161 73.226 50.9985 72.8731 53.7541 72.1311C56.5501 71.3811 59.0193 70.234 61.1536 68.6898C63.3565 67.1015 65.1721 65.1281 66.6003 62.7738C68.0124 60.4515 69.0453 57.7602 69.6989 54.6999L69.707 54.6598C69.8522 53.982 69.832 53.3082 69.6747 52.6784C69.8724 52.514 70.0539 52.3335 70.2193 52.137C70.5623 51.7279 70.8407 51.2466 71.0222 50.7051C72.1076 47.4965 72.7208 44.4683 72.8661 41.6245C73.0113 38.7487 72.6765 36.0654 71.8615 33.5667C71.0223 30.9957 69.6948 28.6735 67.8873 26.5918C66.108 24.5462 63.8568 22.7414 61.1415 21.1772C61.1254 21.1651 61.1052 21.1531 61.0891 21.1451C60.4839 20.7961 59.8302 20.6076 59.1807 20.5595C59.0838 20.3229 58.9668 20.0942 58.8296 19.8777C58.5432 19.4244 58.168 19.0153 57.7121 18.6784C54.9726 16.6569 52.2654 15.1408 49.5944 14.126C46.8872 13.0993 44.2123 12.5859 41.5736 12.5859C38.8583 12.5859 36.2278 13.1193 33.6739 14.1902C31.1402 15.2531 28.7033 16.8334 26.3592 18.9351C25.8427 19.3963 25.4595 19.9538 25.2133 20.5594C24.9591 20.5755 24.705 20.6156 24.4548 20.6798C23.9343 20.8121 23.426 21.0367 22.962 21.3696C20.1862 23.331 17.8986 25.4206 16.0992 27.6386C14.2796 29.8807 12.9642 32.2471 12.1493 34.7459C11.3101 37.3208 11.0035 39.9761 11.2375 42.7114C11.4715 45.4267 12.23 48.2183 13.5251 51.0941C13.8075 51.7238 14.2231 52.2613 14.7193 52.6785C14.6587 52.9271 14.6184 53.1798 14.5982 53.4405C14.5619 53.974 14.6224 54.5235 14.7919 55.0609C15.8086 58.2896 17.1037 61.0972 18.6691 63.4836C20.2548 65.8982 22.1147 67.8755 24.249 69.4197C26.4478 71.008 28.8968 72.1149 31.588 72.7407C34.2588 73.3624 37.1638 73.5027 40.3108 73.1698C41.0047 73.0976 41.6422 72.869 42.1949 72.5281L42.199 72.5242ZM43.6958 66.5239C43.9702 66.4196 44.2647 66.3674 44.5713 66.3715C44.995 66.3755 45.4065 66.3755 45.8019 66.3634C46.2376 66.3514 46.633 66.3354 47.0002 66.3153C47.5651 66.2832 47.9927 65.8019 47.9605 65.2404C47.9524 65.092 47.908 64.9516 47.8435 64.8232L45.9028 60.5998L57.1269 52.4939L60.7661 55.8149C61.1817 56.1959 61.8271 56.1679 62.2104 55.7547C62.3153 55.6424 62.392 55.5101 62.4364 55.3697C62.5372 55.0528 62.6381 54.7039 62.7349 54.3229C62.8277 53.9699 62.9125 53.621 62.9851 53.2681C62.9891 53.248 62.9932 53.232 62.9972 53.2119C63.1384 52.5742 63.5257 52.0488 64.0381 51.7199C64.5505 51.391 65.188 51.2507 65.8376 51.383L65.8739 51.391C66.5154 51.5314 67.0439 51.9165 67.3747 52.4258C67.4272 52.502 67.4715 52.5863 67.5159 52.6705C67.528 52.6986 67.5401 52.7226 67.5522 52.7467C67.754 53.1959 67.8226 53.7093 67.7096 54.2307L67.7015 54.2668C67.0963 57.0984 66.1442 59.5812 64.8491 61.7149C63.562 63.8327 61.928 65.6055 59.9551 67.0333C58.0225 68.4292 55.7752 69.4719 53.2254 70.1578C50.6352 70.8557 47.7302 71.1846 44.5187 71.1525C44.2282 71.1485 43.9498 71.0964 43.6875 70.9961C44.1515 70.21 44.3774 69.2714 44.2766 68.2968C44.208 67.647 44.0022 67.0454 43.6915 66.52L43.6958 66.5239ZM63.8366 78.1234C62.8401 77.967 61.904 77.4295 61.2665 76.5552C60.625 75.6768 60.4031 74.626 60.5605 73.6352C60.7178 72.6445 61.2585 71.714 62.138 71.0803C63.0216 70.4426 64.0786 70.222 65.0752 70.3784C66.0718 70.5348 67.0078 71.0723 67.6453 71.9466C68.2868 72.825 68.5087 73.8758 68.3513 74.8666C68.194 75.8572 67.6534 76.7878 66.7738 77.4215C65.8903 78.0592 64.8332 78.2798 63.8366 78.1234ZM67.9721 79.0659C66.6366 80.0325 65.0308 80.3654 63.5179 80.1247C62.0008 79.8881 60.5806 79.0739 59.6083 77.7463C58.6359 76.4187 58.3011 74.8224 58.5432 73.3183C58.7812 71.8143 59.6002 70.3984 60.9357 69.4318C62.2712 68.4652 63.877 68.1323 65.3899 68.373C66.9029 68.6096 68.3272 69.4238 69.2995 70.7514C70.2719 72.079 70.6067 73.6753 70.3646 75.1794C70.1265 76.6834 69.3076 78.0993 67.9721 79.0659ZM62.489 50.3439C61.7547 50.9575 61.2141 51.8078 60.9962 52.8105V52.8145C60.968 52.9388 60.9438 53.0632 60.9156 53.1875L57.9219 50.4602C57.5709 50.1153 57.0141 50.0631 56.6026 50.3599L44.0265 59.4445V59.4485C43.6432 59.7253 43.494 60.2427 43.6997 60.6919L45.3781 64.3458C45.1159 64.3498 44.8536 64.3498 44.5873 64.3458C44.0023 64.3418 43.4455 64.446 42.9331 64.6426C42.6789 64.7428 42.4328 64.8632 42.2028 65.0035C41.4 64.5062 40.4276 64.2535 39.4149 64.3538L39.3786 64.3578C39.2495 64.3698 39.1204 64.3819 38.9953 64.3939L40.6697 60.752C40.9118 60.3108 40.7908 59.7493 40.3712 59.4445L27.795 50.3639C27.4077 50.0872 26.8671 50.1072 26.504 50.4401L23.5305 53.1514C23.4498 52.9188 23.3691 52.6701 23.2884 52.4094C23.1109 51.8519 22.8365 51.3546 22.4895 50.9334C22.316 50.7248 22.1224 50.5283 21.9166 50.3558C22.1466 49.4333 22.082 48.4306 21.6665 47.4961V47.4921C21.614 47.3757 21.5616 47.2594 21.5131 47.1391L25.5841 47.6003C26.0561 47.6565 26.5201 47.3717 26.6734 46.9025L31.4746 32.2072H31.4705C31.6198 31.758 31.4302 31.2526 31.0025 31.0119L27.4884 29.0386C27.6982 28.8821 27.9121 28.7257 28.1259 28.5773C28.602 28.2404 28.9933 27.8273 29.2919 27.366C29.4412 27.1374 29.5662 26.8968 29.6671 26.6481C30.6233 26.5799 31.5633 26.2069 32.3299 25.521C32.4308 25.4327 32.5276 25.3445 32.6204 25.2643L33.4152 29.1669C33.4717 29.6762 33.9075 30.0733 34.432 30.0733H49.9776V30.0693C50.4536 30.0693 50.8813 29.7364 50.9781 29.2551L51.781 25.3245C51.9908 25.4729 52.2047 25.6253 52.4185 25.7857C52.8865 26.1347 53.4029 26.3713 53.9356 26.5117C54.2018 26.5799 54.4681 26.624 54.7384 26.6441C55.0975 27.5265 55.7471 28.3006 56.6387 28.814V28.81L56.6508 28.818C56.7597 28.8821 56.8727 28.9463 56.9776 29.0105L53.4756 30.9758C53.0156 31.1884 52.7736 31.7179 52.9349 32.2112L57.728 46.8746C57.8652 47.3439 58.3211 47.6607 58.8255 47.6046L62.8359 47.1473C62.7552 47.408 62.6745 47.6567 62.5938 47.8933C62.4082 48.4428 62.3356 49.0043 62.3678 49.5498C62.384 49.8226 62.4243 50.0913 62.4889 50.352L62.489 50.3439Z"/>
</mask>
<path fill-rule="evenodd" clip-rule="evenodd" d="M81.7232 33.9434C82.1751 33.065 82.2921 32.0182 81.9774 31.0074C81.9613 30.9713 81.9532 30.9352 81.9411 30.8951C81.5982 29.8924 80.8841 29.1183 80.0005 28.669C79.1169 28.2198 78.0638 28.1035 77.0471 28.4164C77.0108 28.4324 76.9745 28.4404 76.9341 28.4525C75.9255 28.7934 75.1468 29.5033 74.6949 30.3817C74.2349 31.2761 74.122 32.343 74.4568 33.3738C74.7917 34.4046 75.5179 35.1987 76.4176 35.656C77.3173 36.1133 78.3906 36.2256 79.4275 35.8927C80.4644 35.5598 81.2632 34.8378 81.7232 33.9434ZM83.906 30.3256C84.4143 31.8898 84.2409 33.5103 83.5469 34.8659C82.8529 36.2216 81.6345 37.3166 80.061 37.8259C78.4875 38.3353 76.8575 38.1588 75.4898 37.469C74.1261 36.7791 73.0246 35.5678 72.5122 34.0036C71.9998 32.4394 72.1774 30.8189 72.8713 29.4593C73.5653 28.1036 74.7838 27.0087 76.3572 26.4993H76.3613C77.9347 25.9899 79.5648 26.1664 80.9285 26.8562C82.2921 27.5461 83.3936 28.7574 83.906 30.3216L83.906 30.3256ZM16.0481 74.8621C16.2054 75.8528 16.746 76.7833 17.6255 77.4171C18.5091 78.0548 19.5662 78.2754 20.5628 78.1189C21.5593 77.9625 22.4954 77.4251 23.1329 76.5508C23.7744 75.6724 23.9963 74.6215 23.8389 73.6308C23.6816 72.6401 23.1409 71.7096 22.2614 71.0759C21.3778 70.4381 20.3208 70.2175 19.3242 70.374C18.3276 70.5304 17.3916 71.0679 16.7541 71.9422C16.1126 72.8206 15.8907 73.8714 16.0481 74.8621ZM16.4273 79.0656C15.0878 78.0989 14.2729 76.6871 14.0348 75.179C13.7967 73.6709 14.1316 72.0786 15.0999 70.751C16.0722 69.4194 17.4924 68.6093 19.0095 68.3726C20.5265 68.1359 22.1282 68.4688 23.4637 69.4314C24.8032 70.398 25.6181 71.8098 25.8562 73.318C26.0943 74.8261 25.7594 76.4183 24.7911 77.7459C23.8188 79.0776 22.3986 79.8877 20.8815 80.1244C19.3645 80.361 17.7628 80.0281 16.4273 79.0656ZM4.39965 28.6733C3.49993 29.1306 2.77775 29.9248 2.43887 30.9556C2.10399 31.9863 2.21697 33.0493 2.67691 33.9477C3.13685 34.8421 3.93576 35.56 4.97265 35.8969C6.00954 36.2298 7.07876 36.1175 7.98251 35.6603C8.88223 35.203 9.60441 34.4088 9.94329 33.3781C10.2782 32.3473 10.1652 31.2844 9.70525 30.3859C9.24531 29.4915 8.4464 28.7736 7.40951 28.4367C6.37262 28.1038 5.3034 28.2161 4.39965 28.6733ZM0.494196 30.3258C1.00659 28.7616 2.10401 27.5503 3.47173 26.8605C4.83541 26.1706 6.46537 25.9941 8.04296 26.5035H8.047C9.62046 27.0129 10.8349 28.1078 11.5289 29.4635C12.2228 30.8191 12.4003 32.4395 11.888 34.0078V34.0118C11.3756 35.576 10.2741 36.7833 8.91043 37.4732C7.54674 38.1631 5.91678 38.3395 4.33919 37.8301C2.76573 37.3208 1.54727 36.2298 0.853286 34.8702C0.159328 33.5145 -0.0181959 31.8941 0.494196 30.3258ZM27.55 26.2829C26.9851 26.0382 26.4647 25.6732 26.0289 25.1879C25.3672 24.458 24.996 23.5676 24.9073 22.6571C24.641 22.7293 24.3788 22.8497 24.1448 23.0181C21.5222 24.8711 19.3718 26.8365 17.6934 28.9061C16.0352 30.9516 14.8329 33.1054 14.0945 35.3676C13.34 37.6738 13.0697 40.0643 13.2795 42.535C13.4934 45.0298 14.1954 47.6007 15.3897 50.2599C15.6035 50.7412 15.9585 51.1182 16.3822 51.3588C16.4185 51.3749 16.4508 51.3949 16.483 51.415C16.5637 51.4551 16.6444 51.4912 16.7251 51.5233C17.2819 51.7358 17.9153 51.7439 18.5085 51.5032C18.5488 51.4792 18.5932 51.4631 18.6416 51.4471C19.1379 51.2104 19.5171 50.8254 19.7471 50.3721C19.7632 50.332 19.7794 50.2959 19.8036 50.2558L19.8076 50.2518C19.8237 50.2157 19.8358 50.1836 19.852 50.1475C20.0658 49.594 20.0739 48.9644 19.8318 48.3747C19.8076 48.3266 19.7874 48.2824 19.7673 48.2303C19.618 47.8934 19.4848 47.5765 19.3638 47.2757C19.2428 46.9669 19.1258 46.65 19.0128 46.3131C18.9482 46.1607 18.924 45.9882 18.9442 45.8158C19.0088 45.2582 19.5171 44.8572 20.078 44.9213L24.9881 45.4829L29.2768 32.3678L25.2059 30.0816C25.0809 30.0214 24.9679 29.9332 24.8751 29.8169C24.516 29.3837 24.5806 28.746 25.0163 28.3891C25.3391 28.1243 25.6497 27.8797 25.9523 27.647C26.267 27.4104 26.5979 27.1657 26.9489 26.9171C27.199 26.7406 27.4048 26.524 27.5662 26.2833L27.55 26.2829ZM54.4281 24.5342C54.1457 24.458 53.8794 24.3296 53.6293 24.1491C53.2944 23.9005 52.9595 23.6638 52.6246 23.4352C52.3059 23.2146 51.971 22.998 51.6241 22.7774C51.148 22.4766 50.5186 22.617 50.216 23.0863C50.1433 23.1986 50.0949 23.3229 50.0707 23.4472L49.1347 28.0357H35.2551L34.2747 23.2267C34.1658 22.6772 33.6251 22.3202 33.0764 22.4325C32.9231 22.4646 32.7859 22.5248 32.6689 22.613C32.3865 22.8216 32.1 23.0462 31.8055 23.2828C31.4948 23.5355 31.2084 23.7802 30.9501 24.0128C30.4539 24.458 29.8245 24.6586 29.2072 24.6265C29.1588 24.6225 29.1144 24.6185 29.066 24.6144C29.0418 24.6104 29.0176 24.6064 28.9933 24.6064C28.4567 24.5302 27.9403 24.2735 27.545 23.8363C27.0971 23.343 26.8954 22.7174 26.9277 22.1037C26.9599 21.494 27.2262 20.8924 27.7225 20.4512C29.9052 18.4939 32.1485 17.0339 34.4602 16.0633C36.7478 15.1047 39.1202 14.6235 41.5692 14.6235C43.9617 14.6235 46.3946 15.0927 48.8638 16.0273C51.3693 16.9779 53.9111 18.4057 56.4932 20.3109C56.7272 20.4834 56.9209 20.6919 57.0742 20.9206C56.231 21.2855 55.4967 21.9112 55.0004 22.7656C54.6736 23.3311 54.484 23.9327 54.4235 24.5424L54.4281 24.5342ZM44.9872 3.38461C44.273 2.67468 43.2886 2.23749 42.1993 2.23749C41.1099 2.23749 40.1255 2.67467 39.4114 3.38461C38.6972 4.09453 38.2575 5.07314 38.2575 6.15609C38.2575 7.23903 38.6972 8.21765 39.4114 8.92757C40.1255 9.63749 41.1099 10.0747 42.1993 10.0747C43.2886 10.0747 44.273 9.6375 44.9872 8.92757C45.7013 8.21764 46.1411 7.23903 46.1411 6.15609C46.1411 5.07314 45.7013 4.09452 44.9872 3.38461ZM42.1993 0.199951C43.8535 0.199951 45.3503 0.865756 46.4356 1.94465C47.521 3.02359 48.1907 4.5116 48.1907 6.15609C48.1907 7.80057 47.5209 9.28858 46.4356 10.3675C45.3503 11.4465 43.8535 12.1122 42.1993 12.1122C40.545 12.1122 39.0482 11.4464 37.9629 10.3675C36.8775 9.28858 36.2078 7.80057 36.2078 6.15609C36.2078 4.5116 36.8776 3.02359 37.9629 1.94465C39.0482 0.865715 40.545 0.199951 42.1993 0.199951ZM41.5214 67.0329C41.9047 67.3979 42.167 67.8913 42.2396 68.4488C42.2436 68.4889 42.2477 68.533 42.2517 68.5731C42.3042 69.2108 42.0984 69.8084 41.7232 70.2696C41.6586 70.3458 41.59 70.4221 41.5174 70.4902L41.4811 70.5263C41.1139 70.8632 40.6379 71.0919 40.1013 71.144H40.0973C37.1843 71.4528 34.5012 71.3205 32.0522 70.7509C29.6274 70.1894 27.4245 69.1908 25.4476 67.7628C23.511 66.363 21.8205 64.5662 20.3802 62.3682C18.9196 60.1422 17.7052 57.503 16.741 54.4468C16.6522 54.1661 16.6199 53.8853 16.632 53.6086C17.5277 53.8051 18.492 53.7289 19.3958 53.3318H19.3998C19.9969 53.0671 20.5053 52.6861 20.9127 52.2329C21.0943 52.4575 21.2395 52.7182 21.3283 53.011C21.4453 53.384 21.5744 53.773 21.7197 54.1741C21.8609 54.5792 22.0021 54.9522 22.1352 55.2931C22.341 55.8145 22.9341 56.0752 23.4585 55.8706C23.5876 55.8185 23.7046 55.7463 23.7974 55.6541L27.2632 52.4935L38.4873 60.5994L36.4377 65.0676C36.2037 65.5769 36.4296 66.1785 36.942 66.4112C37.0913 66.4794 37.2486 66.5075 37.406 66.5034C37.7772 66.4994 38.1322 66.4874 38.4711 66.4673C38.818 66.4473 39.1691 66.4192 39.5281 66.3791C39.5725 66.3751 39.6169 66.3711 39.6572 66.3671C40.2987 66.3149 40.8998 66.5195 41.3638 66.8925C41.4041 66.9246 41.4445 66.9607 41.4808 66.9928C41.4929 67.0048 41.505 67.0168 41.5171 67.0289L41.5214 67.0329ZM68.6867 50.7934C68.8602 50.5768 69.0014 50.3322 69.0942 50.0554C70.119 47.0232 70.7 44.1795 70.8331 41.5203C70.9663 38.8932 70.6637 36.4506 69.9213 34.1885C69.1668 31.8743 67.9726 29.7846 66.3467 27.9115C64.7127 26.0345 62.6389 24.37 60.1213 22.926C60.1012 22.918 60.085 22.9059 60.0648 22.8979C59.4879 22.569 58.8343 22.5008 58.2372 22.6613C57.6401 22.8217 57.1034 23.2027 56.7726 23.7763C56.4781 24.2816 56.3933 24.8512 56.4861 25.3846C56.4902 25.4087 56.4942 25.4287 56.4982 25.4528C56.5063 25.5009 56.5184 25.549 56.5305 25.5972C56.6919 26.1908 57.0752 26.7243 57.6521 27.0531V27.0572C57.9829 27.2497 58.3057 27.4422 58.6123 27.6347C58.9392 27.8433 59.2458 28.0478 59.5242 28.2444V28.2484C59.6412 28.3326 59.7461 28.4409 59.8187 28.5773C60.0931 29.0666 59.9196 29.6842 59.4314 29.957L55.1304 32.3716L59.4192 45.4867L64.1195 44.9532V44.9572C64.2406 44.9452 64.3656 44.9492 64.4907 44.9813C65.0354 45.1217 65.3662 45.6752 65.225 46.2166C65.1161 46.6297 65.0112 47.0108 64.9063 47.3637C64.8014 47.7167 64.6763 48.1057 64.5311 48.5309C64.4342 48.8196 64.3939 49.1164 64.41 49.4052C65.0112 49.2729 65.6486 49.2648 66.2861 49.4012C67.2544 49.6058 68.0775 50.1071 68.6907 50.793L68.6867 50.7934ZM42.199 72.5242C42.4169 72.6605 42.6468 72.7728 42.8889 72.8731C43.3852 73.0696 43.9298 73.1819 44.5028 73.1899C47.9161 73.226 50.9985 72.8731 53.7541 72.1311C56.5501 71.3811 59.0193 70.234 61.1536 68.6898C63.3565 67.1015 65.1721 65.1281 66.6003 62.7738C68.0124 60.4515 69.0453 57.7602 69.6989 54.6999L69.707 54.6598C69.8522 53.982 69.832 53.3082 69.6747 52.6784C69.8724 52.514 70.0539 52.3335 70.2193 52.137C70.5623 51.7279 70.8407 51.2466 71.0222 50.7051C72.1076 47.4965 72.7208 44.4683 72.8661 41.6245C73.0113 38.7487 72.6765 36.0654 71.8615 33.5667C71.0223 30.9957 69.6948 28.6735 67.8873 26.5918C66.108 24.5462 63.8568 22.7414 61.1415 21.1772C61.1254 21.1651 61.1052 21.1531 61.0891 21.1451C60.4839 20.7961 59.8302 20.6076 59.1807 20.5595C59.0838 20.3229 58.9668 20.0942 58.8296 19.8777C58.5432 19.4244 58.168 19.0153 57.7121 18.6784C54.9726 16.6569 52.2654 15.1408 49.5944 14.126C46.8872 13.0993 44.2123 12.5859 41.5736 12.5859C38.8583 12.5859 36.2278 13.1193 33.6739 14.1902C31.1402 15.2531 28.7033 16.8334 26.3592 18.9351C25.8427 19.3963 25.4595 19.9538 25.2133 20.5594C24.9591 20.5755 24.705 20.6156 24.4548 20.6798C23.9343 20.8121 23.426 21.0367 22.962 21.3696C20.1862 23.331 17.8986 25.4206 16.0992 27.6386C14.2796 29.8807 12.9642 32.2471 12.1493 34.7459C11.3101 37.3208 11.0035 39.9761 11.2375 42.7114C11.4715 45.4267 12.23 48.2183 13.5251 51.0941C13.8075 51.7238 14.2231 52.2613 14.7193 52.6785C14.6587 52.9271 14.6184 53.1798 14.5982 53.4405C14.5619 53.974 14.6224 54.5235 14.7919 55.0609C15.8086 58.2896 17.1037 61.0972 18.6691 63.4836C20.2548 65.8982 22.1147 67.8755 24.249 69.4197C26.4478 71.008 28.8968 72.1149 31.588 72.7407C34.2588 73.3624 37.1638 73.5027 40.3108 73.1698C41.0047 73.0976 41.6422 72.869 42.1949 72.5281L42.199 72.5242ZM43.6958 66.5239C43.9702 66.4196 44.2647 66.3674 44.5713 66.3715C44.995 66.3755 45.4065 66.3755 45.8019 66.3634C46.2376 66.3514 46.633 66.3354 47.0002 66.3153C47.5651 66.2832 47.9927 65.8019 47.9605 65.2404C47.9524 65.092 47.908 64.9516 47.8435 64.8232L45.9028 60.5998L57.1269 52.4939L60.7661 55.8149C61.1817 56.1959 61.8271 56.1679 62.2104 55.7547C62.3153 55.6424 62.392 55.5101 62.4364 55.3697C62.5372 55.0528 62.6381 54.7039 62.7349 54.3229C62.8277 53.9699 62.9125 53.621 62.9851 53.2681C62.9891 53.248 62.9932 53.232 62.9972 53.2119C63.1384 52.5742 63.5257 52.0488 64.0381 51.7199C64.5505 51.391 65.188 51.2507 65.8376 51.383L65.8739 51.391C66.5154 51.5314 67.0439 51.9165 67.3747 52.4258C67.4272 52.502 67.4715 52.5863 67.5159 52.6705C67.528 52.6986 67.5401 52.7226 67.5522 52.7467C67.754 53.1959 67.8226 53.7093 67.7096 54.2307L67.7015 54.2668C67.0963 57.0984 66.1442 59.5812 64.8491 61.7149C63.562 63.8327 61.928 65.6055 59.9551 67.0333C58.0225 68.4292 55.7752 69.4719 53.2254 70.1578C50.6352 70.8557 47.7302 71.1846 44.5187 71.1525C44.2282 71.1485 43.9498 71.0964 43.6875 70.9961C44.1515 70.21 44.3774 69.2714 44.2766 68.2968C44.208 67.647 44.0022 67.0454 43.6915 66.52L43.6958 66.5239ZM63.8366 78.1234C62.8401 77.967 61.904 77.4295 61.2665 76.5552C60.625 75.6768 60.4031 74.626 60.5605 73.6352C60.7178 72.6445 61.2585 71.714 62.138 71.0803C63.0216 70.4426 64.0786 70.222 65.0752 70.3784C66.0718 70.5348 67.0078 71.0723 67.6453 71.9466C68.2868 72.825 68.5087 73.8758 68.3513 74.8666C68.194 75.8572 67.6534 76.7878 66.7738 77.4215C65.8903 78.0592 64.8332 78.2798 63.8366 78.1234ZM67.9721 79.0659C66.6366 80.0325 65.0308 80.3654 63.5179 80.1247C62.0008 79.8881 60.5806 79.0739 59.6083 77.7463C58.6359 76.4187 58.3011 74.8224 58.5432 73.3183C58.7812 71.8143 59.6002 70.3984 60.9357 69.4318C62.2712 68.4652 63.877 68.1323 65.3899 68.373C66.9029 68.6096 68.3272 69.4238 69.2995 70.7514C70.2719 72.079 70.6067 73.6753 70.3646 75.1794C70.1265 76.6834 69.3076 78.0993 67.9721 79.0659ZM62.489 50.3439C61.7547 50.9575 61.2141 51.8078 60.9962 52.8105V52.8145C60.968 52.9388 60.9438 53.0632 60.9156 53.1875L57.9219 50.4602C57.5709 50.1153 57.0141 50.0631 56.6026 50.3599L44.0265 59.4445V59.4485C43.6432 59.7253 43.494 60.2427 43.6997 60.6919L45.3781 64.3458C45.1159 64.3498 44.8536 64.3498 44.5873 64.3458C44.0023 64.3418 43.4455 64.446 42.9331 64.6426C42.6789 64.7428 42.4328 64.8632 42.2028 65.0035C41.4 64.5062 40.4276 64.2535 39.4149 64.3538L39.3786 64.3578C39.2495 64.3698 39.1204 64.3819 38.9953 64.3939L40.6697 60.752C40.9118 60.3108 40.7908 59.7493 40.3712 59.4445L27.795 50.3639C27.4077 50.0872 26.8671 50.1072 26.504 50.4401L23.5305 53.1514C23.4498 52.9188 23.3691 52.6701 23.2884 52.4094C23.1109 51.8519 22.8365 51.3546 22.4895 50.9334C22.316 50.7248 22.1224 50.5283 21.9166 50.3558C22.1466 49.4333 22.082 48.4306 21.6665 47.4961V47.4921C21.614 47.3757 21.5616 47.2594 21.5131 47.1391L25.5841 47.6003C26.0561 47.6565 26.5201 47.3717 26.6734 46.9025L31.4746 32.2072H31.4705C31.6198 31.758 31.4302 31.2526 31.0025 31.0119L27.4884 29.0386C27.6982 28.8821 27.9121 28.7257 28.1259 28.5773C28.602 28.2404 28.9933 27.8273 29.2919 27.366C29.4412 27.1374 29.5662 26.8968 29.6671 26.6481C30.6233 26.5799 31.5633 26.2069 32.3299 25.521C32.4308 25.4327 32.5276 25.3445 32.6204 25.2643L33.4152 29.1669C33.4717 29.6762 33.9075 30.0733 34.432 30.0733H49.9776V30.0693C50.4536 30.0693 50.8813 29.7364 50.9781 29.2551L51.781 25.3245C51.9908 25.4729 52.2047 25.6253 52.4185 25.7857C52.8865 26.1347 53.4029 26.3713 53.9356 26.5117C54.2018 26.5799 54.4681 26.624 54.7384 26.6441C55.0975 27.5265 55.7471 28.3006 56.6387 28.814V28.81L56.6508 28.818C56.7597 28.8821 56.8727 28.9463 56.9776 29.0105L53.4756 30.9758C53.0156 31.1884 52.7736 31.7179 52.9349 32.2112L57.728 46.8746C57.8652 47.3439 58.3211 47.6607 58.8255 47.6046L62.8359 47.1473C62.7552 47.408 62.6745 47.6567 62.5938 47.8933C62.4082 48.4428 62.3356 49.0043 62.3678 49.5498C62.384 49.8226 62.4243 50.0913 62.4889 50.352L62.489 50.3439Z" fill="#005774"/>
<path fill-rule="evenodd" clip-rule="evenodd" d="M81.7232 33.9434C82.1751 33.065 82.2921 32.0182 81.9774 31.0074C81.9613 30.9713 81.9532 30.9352 81.9411 30.8951C81.5982 29.8924 80.8841 29.1183 80.0005 28.669C79.1169 28.2198 78.0638 28.1035 77.0471 28.4164C77.0108 28.4324 76.9745 28.4404 76.9341 28.4525C75.9255 28.7934 75.1468 29.5033 74.6949 30.3817C74.2349 31.2761 74.122 32.343 74.4568 33.3738C74.7917 34.4046 75.5179 35.1987 76.4176 35.656C77.3173 36.1133 78.3906 36.2256 79.4275 35.8927C80.4644 35.5598 81.2632 34.8378 81.7232 33.9434ZM83.906 30.3256C84.4143 31.8898 84.2409 33.5103 83.5469 34.8659C82.8529 36.2216 81.6345 37.3166 80.061 37.8259C78.4875 38.3353 76.8575 38.1588 75.4898 37.469C74.1261 36.7791 73.0246 35.5678 72.5122 34.0036C71.9998 32.4394 72.1774 30.8189 72.8713 29.4593C73.5653 28.1036 74.7838 27.0087 76.3572 26.4993H76.3613C77.9347 25.9899 79.5648 26.1664 80.9285 26.8562C82.2921 27.5461 83.3936 28.7574 83.906 30.3216L83.906 30.3256ZM16.0481 74.8621C16.2054 75.8528 16.746 76.7833 17.6255 77.4171C18.5091 78.0548 19.5662 78.2754 20.5628 78.1189C21.5593 77.9625 22.4954 77.4251 23.1329 76.5508C23.7744 75.6724 23.9963 74.6215 23.8389 73.6308C23.6816 72.6401 23.1409 71.7096 22.2614 71.0759C21.3778 70.4381 20.3208 70.2175 19.3242 70.374C18.3276 70.5304 17.3916 71.0679 16.7541 71.9422C16.1126 72.8206 15.8907 73.8714 16.0481 74.8621ZM16.4273 79.0656C15.0878 78.0989 14.2729 76.6871 14.0348 75.179C13.7967 73.6709 14.1316 72.0786 15.0999 70.751C16.0722 69.4194 17.4924 68.6093 19.0095 68.3726C20.5265 68.1359 22.1282 68.4688 23.4637 69.4314C24.8032 70.398 25.6181 71.8098 25.8562 73.318C26.0943 74.8261 25.7594 76.4183 24.7911 77.7459C23.8188 79.0776 22.3986 79.8877 20.8815 80.1244C19.3645 80.361 17.7628 80.0281 16.4273 79.0656ZM4.39965 28.6733C3.49993 29.1306 2.77775 29.9248 2.43887 30.9556C2.10399 31.9863 2.21697 33.0493 2.67691 33.9477C3.13685 34.8421 3.93576 35.56 4.97265 35.8969C6.00954 36.2298 7.07876 36.1175 7.98251 35.6603C8.88223 35.203 9.60441 34.4088 9.94329 33.3781C10.2782 32.3473 10.1652 31.2844 9.70525 30.3859C9.24531 29.4915 8.4464 28.7736 7.40951 28.4367C6.37262 28.1038 5.3034 28.2161 4.39965 28.6733ZM0.494196 30.3258C1.00659 28.7616 2.10401 27.5503 3.47173 26.8605C4.83541 26.1706 6.46537 25.9941 8.04296 26.5035H8.047C9.62046 27.0129 10.8349 28.1078 11.5289 29.4635C12.2228 30.8191 12.4003 32.4395 11.888 34.0078V34.0118C11.3756 35.576 10.2741 36.7833 8.91043 37.4732C7.54674 38.1631 5.91678 38.3395 4.33919 37.8301C2.76573 37.3208 1.54727 36.2298 0.853286 34.8702C0.159328 33.5145 -0.0181959 31.8941 0.494196 30.3258ZM27.55 26.2829C26.9851 26.0382 26.4647 25.6732 26.0289 25.1879C25.3672 24.458 24.996 23.5676 24.9073 22.6571C24.641 22.7293 24.3788 22.8497 24.1448 23.0181C21.5222 24.8711 19.3718 26.8365 17.6934 28.9061C16.0352 30.9516 14.8329 33.1054 14.0945 35.3676C13.34 37.6738 13.0697 40.0643 13.2795 42.535C13.4934 45.0298 14.1954 47.6007 15.3897 50.2599C15.6035 50.7412 15.9585 51.1182 16.3822 51.3588C16.4185 51.3749 16.4508 51.3949 16.483 51.415C16.5637 51.4551 16.6444 51.4912 16.7251 51.5233C17.2819 51.7358 17.9153 51.7439 18.5085 51.5032C18.5488 51.4792 18.5932 51.4631 18.6416 51.4471C19.1379 51.2104 19.5171 50.8254 19.7471 50.3721C19.7632 50.332 19.7794 50.2959 19.8036 50.2558L19.8076 50.2518C19.8237 50.2157 19.8358 50.1836 19.852 50.1475C20.0658 49.594 20.0739 48.9644 19.8318 48.3747C19.8076 48.3266 19.7874 48.2824 19.7673 48.2303C19.618 47.8934 19.4848 47.5765 19.3638 47.2757C19.2428 46.9669 19.1258 46.65 19.0128 46.3131C18.9482 46.1607 18.924 45.9882 18.9442 45.8158C19.0088 45.2582 19.5171 44.8572 20.078 44.9213L24.9881 45.4829L29.2768 32.3678L25.2059 30.0816C25.0809 30.0214 24.9679 29.9332 24.8751 29.8169C24.516 29.3837 24.5806 28.746 25.0163 28.3891C25.3391 28.1243 25.6497 27.8797 25.9523 27.647C26.267 27.4104 26.5979 27.1657 26.9489 26.9171C27.199 26.7406 27.4048 26.524 27.5662 26.2833L27.55 26.2829ZM54.4281 24.5342C54.1457 24.458 53.8794 24.3296 53.6293 24.1491C53.2944 23.9005 52.9595 23.6638 52.6246 23.4352C52.3059 23.2146 51.971 22.998 51.6241 22.7774C51.148 22.4766 50.5186 22.617 50.216 23.0863C50.1433 23.1986 50.0949 23.3229 50.0707 23.4472L49.1347 28.0357H35.2551L34.2747 23.2267C34.1658 22.6772 33.6251 22.3202 33.0764 22.4325C32.9231 22.4646 32.7859 22.5248 32.6689 22.613C32.3865 22.8216 32.1 23.0462 31.8055 23.2828C31.4948 23.5355 31.2084 23.7802 30.9501 24.0128C30.4539 24.458 29.8245 24.6586 29.2072 24.6265C29.1588 24.6225 29.1144 24.6185 29.066 24.6144C29.0418 24.6104 29.0176 24.6064 28.9933 24.6064C28.4567 24.5302 27.9403 24.2735 27.545 23.8363C27.0971 23.343 26.8954 22.7174 26.9277 22.1037C26.9599 21.494 27.2262 20.8924 27.7225 20.4512C29.9052 18.4939 32.1485 17.0339 34.4602 16.0633C36.7478 15.1047 39.1202 14.6235 41.5692 14.6235C43.9617 14.6235 46.3946 15.0927 48.8638 16.0273C51.3693 16.9779 53.9111 18.4057 56.4932 20.3109C56.7272 20.4834 56.9209 20.6919 57.0742 20.9206C56.231 21.2855 55.4967 21.9112 55.0004 22.7656C54.6736 23.3311 54.484 23.9327 54.4235 24.5424L54.4281 24.5342ZM44.9872 3.38461C44.273 2.67468 43.2886 2.23749 42.1993 2.23749C41.1099 2.23749 40.1255 2.67467 39.4114 3.38461C38.6972 4.09453 38.2575 5.07314 38.2575 6.15609C38.2575 7.23903 38.6972 8.21765 39.4114 8.92757C40.1255 9.63749 41.1099 10.0747 42.1993 10.0747C43.2886 10.0747 44.273 9.6375 44.9872 8.92757C45.7013 8.21764 46.1411 7.23903 46.1411 6.15609C46.1411 5.07314 45.7013 4.09452 44.9872 3.38461ZM42.1993 0.199951C43.8535 0.199951 45.3503 0.865756 46.4356 1.94465C47.521 3.02359 48.1907 4.5116 48.1907 6.15609C48.1907 7.80057 47.5209 9.28858 46.4356 10.3675C45.3503 11.4465 43.8535 12.1122 42.1993 12.1122C40.545 12.1122 39.0482 11.4464 37.9629 10.3675C36.8775 9.28858 36.2078 7.80057 36.2078 6.15609C36.2078 4.5116 36.8776 3.02359 37.9629 1.94465C39.0482 0.865715 40.545 0.199951 42.1993 0.199951ZM41.5214 67.0329C41.9047 67.3979 42.167 67.8913 42.2396 68.4488C42.2436 68.4889 42.2477 68.533 42.2517 68.5731C42.3042 69.2108 42.0984 69.8084 41.7232 70.2696C41.6586 70.3458 41.59 70.4221 41.5174 70.4902L41.4811 70.5263C41.1139 70.8632 40.6379 71.0919 40.1013 71.144H40.0973C37.1843 71.4528 34.5012 71.3205 32.0522 70.7509C29.6274 70.1894 27.4245 69.1908 25.4476 67.7628C23.511 66.363 21.8205 64.5662 20.3802 62.3682C18.9196 60.1422 17.7052 57.503 16.741 54.4468C16.6522 54.1661 16.6199 53.8853 16.632 53.6086C17.5277 53.8051 18.492 53.7289 19.3958 53.3318H19.3998C19.9969 53.0671 20.5053 52.6861 20.9127 52.2329C21.0943 52.4575 21.2395 52.7182 21.3283 53.011C21.4453 53.384 21.5744 53.773 21.7197 54.1741C21.8609 54.5792 22.0021 54.9522 22.1352 55.2931C22.341 55.8145 22.9341 56.0752 23.4585 55.8706C23.5876 55.8185 23.7046 55.7463 23.7974 55.6541L27.2632 52.4935L38.4873 60.5994L36.4377 65.0676C36.2037 65.5769 36.4296 66.1785 36.942 66.4112C37.0913 66.4794 37.2486 66.5075 37.406 66.5034C37.7772 66.4994 38.1322 66.4874 38.4711 66.4673C38.818 66.4473 39.1691 66.4192 39.5281 66.3791C39.5725 66.3751 39.6169 66.3711 39.6572 66.3671C40.2987 66.3149 40.8998 66.5195 41.3638 66.8925C41.4041 66.9246 41.4445 66.9607 41.4808 66.9928C41.4929 67.0048 41.505 67.0168 41.5171 67.0289L41.5214 67.0329ZM68.6867 50.7934C68.8602 50.5768 69.0014 50.3322 69.0942 50.0554C70.119 47.0232 70.7 44.1795 70.8331 41.5203C70.9663 38.8932 70.6637 36.4506 69.9213 34.1885C69.1668 31.8743 67.9726 29.7846 66.3467 27.9115C64.7127 26.0345 62.6389 24.37 60.1213 22.926C60.1012 22.918 60.085 22.9059 60.0648 22.8979C59.4879 22.569 58.8343 22.5008 58.2372 22.6613C57.6401 22.8217 57.1034 23.2027 56.7726 23.7763C56.4781 24.2816 56.3933 24.8512 56.4861 25.3846C56.4902 25.4087 56.4942 25.4287 56.4982 25.4528C56.5063 25.5009 56.5184 25.549 56.5305 25.5972C56.6919 26.1908 57.0752 26.7243 57.6521 27.0531V27.0572C57.9829 27.2497 58.3057 27.4422 58.6123 27.6347C58.9392 27.8433 59.2458 28.0478 59.5242 28.2444V28.2484C59.6412 28.3326 59.7461 28.4409 59.8187 28.5773C60.0931 29.0666 59.9196 29.6842 59.4314 29.957L55.1304 32.3716L59.4192 45.4867L64.1195 44.9532V44.9572C64.2406 44.9452 64.3656 44.9492 64.4907 44.9813C65.0354 45.1217 65.3662 45.6752 65.225 46.2166C65.1161 46.6297 65.0112 47.0108 64.9063 47.3637C64.8014 47.7167 64.6763 48.1057 64.5311 48.5309C64.4342 48.8196 64.3939 49.1164 64.41 49.4052C65.0112 49.2729 65.6486 49.2648 66.2861 49.4012C67.2544 49.6058 68.0775 50.1071 68.6907 50.793L68.6867 50.7934ZM42.199 72.5242C42.4169 72.6605 42.6468 72.7728 42.8889 72.8731C43.3852 73.0696 43.9298 73.1819 44.5028 73.1899C47.9161 73.226 50.9985 72.8731 53.7541 72.1311C56.5501 71.3811 59.0193 70.234 61.1536 68.6898C63.3565 67.1015 65.1721 65.1281 66.6003 62.7738C68.0124 60.4515 69.0453 57.7602 69.6989 54.6999L69.707 54.6598C69.8522 53.982 69.832 53.3082 69.6747 52.6784C69.8724 52.514 70.0539 52.3335 70.2193 52.137C70.5623 51.7279 70.8407 51.2466 71.0222 50.7051C72.1076 47.4965 72.7208 44.4683 72.8661 41.6245C73.0113 38.7487 72.6765 36.0654 71.8615 33.5667C71.0223 30.9957 69.6948 28.6735 67.8873 26.5918C66.108 24.5462 63.8568 22.7414 61.1415 21.1772C61.1254 21.1651 61.1052 21.1531 61.0891 21.1451C60.4839 20.7961 59.8302 20.6076 59.1807 20.5595C59.0838 20.3229 58.9668 20.0942 58.8296 19.8777C58.5432 19.4244 58.168 19.0153 57.7121 18.6784C54.9726 16.6569 52.2654 15.1408 49.5944 14.126C46.8872 13.0993 44.2123 12.5859 41.5736 12.5859C38.8583 12.5859 36.2278 13.1193 33.6739 14.1902C31.1402 15.2531 28.7033 16.8334 26.3592 18.9351C25.8427 19.3963 25.4595 19.9538 25.2133 20.5594C24.9591 20.5755 24.705 20.6156 24.4548 20.6798C23.9343 20.8121 23.426 21.0367 22.962 21.3696C20.1862 23.331 17.8986 25.4206 16.0992 27.6386C14.2796 29.8807 12.9642 32.2471 12.1493 34.7459C11.3101 37.3208 11.0035 39.9761 11.2375 42.7114C11.4715 45.4267 12.23 48.2183 13.5251 51.0941C13.8075 51.7238 14.2231 52.2613 14.7193 52.6785C14.6587 52.9271 14.6184 53.1798 14.5982 53.4405C14.5619 53.974 14.6224 54.5235 14.7919 55.0609C15.8086 58.2896 17.1037 61.0972 18.6691 63.4836C20.2548 65.8982 22.1147 67.8755 24.249 69.4197C26.4478 71.008 28.8968 72.1149 31.588 72.7407C34.2588 73.3624 37.1638 73.5027 40.3108 73.1698C41.0047 73.0976 41.6422 72.869 42.1949 72.5281L42.199 72.5242ZM43.6958 66.5239C43.9702 66.4196 44.2647 66.3674 44.5713 66.3715C44.995 66.3755 45.4065 66.3755 45.8019 66.3634C46.2376 66.3514 46.633 66.3354 47.0002 66.3153C47.5651 66.2832 47.9927 65.8019 47.9605 65.2404C47.9524 65.092 47.908 64.9516 47.8435 64.8232L45.9028 60.5998L57.1269 52.4939L60.7661 55.8149C61.1817 56.1959 61.8271 56.1679 62.2104 55.7547C62.3153 55.6424 62.392 55.5101 62.4364 55.3697C62.5372 55.0528 62.6381 54.7039 62.7349 54.3229C62.8277 53.9699 62.9125 53.621 62.9851 53.2681C62.9891 53.248 62.9932 53.232 62.9972 53.2119C63.1384 52.5742 63.5257 52.0488 64.0381 51.7199C64.5505 51.391 65.188 51.2507 65.8376 51.383L65.8739 51.391C66.5154 51.5314 67.0439 51.9165 67.3747 52.4258C67.4272 52.502 67.4715 52.5863 67.5159 52.6705C67.528 52.6986 67.5401 52.7226 67.5522 52.7467C67.754 53.1959 67.8226 53.7093 67.7096 54.2307L67.7015 54.2668C67.0963 57.0984 66.1442 59.5812 64.8491 61.7149C63.562 63.8327 61.928 65.6055 59.9551 67.0333C58.0225 68.4292 55.7752 69.4719 53.2254 70.1578C50.6352 70.8557 47.7302 71.1846 44.5187 71.1525C44.2282 71.1485 43.9498 71.0964 43.6875 70.9961C44.1515 70.21 44.3774 69.2714 44.2766 68.2968C44.208 67.647 44.0022 67.0454 43.6915 66.52L43.6958 66.5239ZM63.8366 78.1234C62.8401 77.967 61.904 77.4295 61.2665 76.5552C60.625 75.6768 60.4031 74.626 60.5605 73.6352C60.7178 72.6445 61.2585 71.714 62.138 71.0803C63.0216 70.4426 64.0786 70.222 65.0752 70.3784C66.0718 70.5348 67.0078 71.0723 67.6453 71.9466C68.2868 72.825 68.5087 73.8758 68.3513 74.8666C68.194 75.8572 67.6534 76.7878 66.7738 77.4215C65.8903 78.0592 64.8332 78.2798 63.8366 78.1234ZM67.9721 79.0659C66.6366 80.0325 65.0308 80.3654 63.5179 80.1247C62.0008 79.8881 60.5806 79.0739 59.6083 77.7463C58.6359 76.4187 58.3011 74.8224 58.5432 73.3183C58.7812 71.8143 59.6002 70.3984 60.9357 69.4318C62.2712 68.4652 63.877 68.1323 65.3899 68.373C66.9029 68.6096 68.3272 69.4238 69.2995 70.7514C70.2719 72.079 70.6067 73.6753 70.3646 75.1794C70.1265 76.6834 69.3076 78.0993 67.9721 79.0659ZM62.489 50.3439C61.7547 50.9575 61.2141 51.8078 60.9962 52.8105V52.8145C60.968 52.9388 60.9438 53.0632 60.9156 53.1875L57.9219 50.4602C57.5709 50.1153 57.0141 50.0631 56.6026 50.3599L44.0265 59.4445V59.4485C43.6432 59.7253 43.494 60.2427 43.6997 60.6919L45.3781 64.3458C45.1159 64.3498 44.8536 64.3498 44.5873 64.3458C44.0023 64.3418 43.4455 64.446 42.9331 64.6426C42.6789 64.7428 42.4328 64.8632 42.2028 65.0035C41.4 64.5062 40.4276 64.2535 39.4149 64.3538L39.3786 64.3578C39.2495 64.3698 39.1204 64.3819 38.9953 64.3939L40.6697 60.752C40.9118 60.3108 40.7908 59.7493 40.3712 59.4445L27.795 50.3639C27.4077 50.0872 26.8671 50.1072 26.504 50.4401L23.5305 53.1514C23.4498 52.9188 23.3691 52.6701 23.2884 52.4094C23.1109 51.8519 22.8365 51.3546 22.4895 50.9334C22.316 50.7248 22.1224 50.5283 21.9166 50.3558C22.1466 49.4333 22.082 48.4306 21.6665 47.4961V47.4921C21.614 47.3757 21.5616 47.2594 21.5131 47.1391L25.5841 47.6003C26.0561 47.6565 26.5201 47.3717 26.6734 46.9025L31.4746 32.2072H31.4705C31.6198 31.758 31.4302 31.2526 31.0025 31.0119L27.4884 29.0386C27.6982 28.8821 27.9121 28.7257 28.1259 28.5773C28.602 28.2404 28.9933 27.8273 29.2919 27.366C29.4412 27.1374 29.5662 26.8968 29.6671 26.6481C30.6233 26.5799 31.5633 26.2069 32.3299 25.521C32.4308 25.4327 32.5276 25.3445 32.6204 25.2643L33.4152 29.1669C33.4717 29.6762 33.9075 30.0733 34.432 30.0733H49.9776V30.0693C50.4536 30.0693 50.8813 29.7364 50.9781 29.2551L51.781 25.3245C51.9908 25.4729 52.2047 25.6253 52.4185 25.7857C52.8865 26.1347 53.4029 26.3713 53.9356 26.5117C54.2018 26.5799 54.4681 26.624 54.7384 26.6441C55.0975 27.5265 55.7471 28.3006 56.6387 28.814V28.81L56.6508 28.818C56.7597 28.8821 56.8727 28.9463 56.9776 29.0105L53.4756 30.9758C53.0156 31.1884 52.7736 31.7179 52.9349 32.2112L57.728 46.8746C57.8652 47.3439 58.3211 47.6607 58.8255 47.6046L62.8359 47.1473C62.7552 47.408 62.6745 47.6567 62.5938 47.8933C62.4082 48.4428 62.3356 49.0043 62.3678 49.5498C62.384 49.8226 62.4243 50.0913 62.4889 50.352L62.489 50.3439Z" stroke="#005774" stroke-width="0.4" mask="url(#path-1-outside-1_379_606)"/>
</svg>
