<svg width="73" height="80" viewBox="0 0 73 80" fill="none" xmlns="http://www.w3.org/2000/svg">
<path d="M72.1532 45.9894L59.5591 35.6263C59.0395 35.1991 58.3375 35.1096 57.7251 35.399C57.116 35.6883 56.7375 36.2844 56.7375 36.9596V41.0558H56.4209C51.7206 41.0558 47.2059 42.2823 43.2252 44.5734V16.2819H47.3165C47.9909 16.2819 48.5862 15.9029 48.8752 15.2931C49.1642 14.6833 49.0748 13.9805 48.6481 13.4603L38.3012 0.850949C37.8504 0.299725 37.2104 0 36.5015 0C35.7927 0 35.1527 0.303173 34.7019 0.850949L24.3514 13.4603C23.9247 13.9805 23.8353 14.6833 24.1243 15.2931C24.4134 15.9029 25.0086 16.2819 25.683 16.2819H29.7743V30.9206C25.7932 28.6296 21.2752 27.4031 16.5786 27.4031H16.2621V22.9244C16.2621 22.2492 15.8835 21.6497 15.2745 21.3638C14.6654 21.0744 13.9635 21.164 13.4405 21.5912L0.849918 31.9542C0.299361 32.4055 0 33.0463 0 33.7561C0 34.4658 0.302806 35.1065 0.849918 35.5579L13.444 45.9209C13.9636 46.3481 14.6655 46.4377 15.2746 46.1483C15.8836 45.8589 16.2621 45.2629 16.2621 44.5877V40.8704H16.5787C20.0817 40.8704 23.3919 42.2519 25.8932 44.7565C28.3983 47.2646 29.7746 50.5754 29.7746 54.0823V77.6677C29.7746 78.9561 30.8207 80 32.1041 80H40.8924C42.1793 80 43.2219 78.9527 43.2219 77.6677L43.2254 67.7386C43.2254 64.2314 44.6052 60.9206 47.1067 58.4127C49.6118 55.9046 52.9186 54.5266 56.4213 54.5266H56.7378V58.6229C56.7378 59.2981 57.1163 59.8942 57.7254 60.1835C58.3345 60.4729 59.0364 60.3833 59.556 59.9562L72.1501 49.5931C72.7006 49.1418 73 48.501 73 47.7913C73.0034 47.0816 72.7003 46.4407 72.1532 45.9894ZM30.5928 14.6489H25.686C25.6412 14.6489 25.6206 14.6352 25.5999 14.5938C25.5793 14.5525 25.5827 14.5284 25.6137 14.4939L35.9642 1.88454C36.1087 1.70884 36.2807 1.6296 36.5044 1.6296C36.7315 1.6296 36.9035 1.71229 37.0446 1.88454L47.3951 14.4939C47.4226 14.5284 47.426 14.5525 47.4088 14.5938C47.3882 14.6352 47.3675 14.6489 47.3228 14.6489H42.416C41.9652 14.6489 41.6005 15.0141 41.6005 15.4654V44.9149C40.2688 41.3009 38.1526 37.9798 35.4102 35.2337C34.1715 33.9935 32.8329 32.891 31.4118 31.9332L31.4049 15.4653C31.4049 15.0139 31.0401 14.6489 30.5928 14.6489ZM27.0452 43.6019C24.2339 40.7872 20.5176 39.2369 16.5776 39.2369H15.4454C14.9947 39.2369 14.6299 39.6021 14.6299 40.0534V44.5872C14.6299 44.632 14.6162 44.6527 14.5749 44.6733C14.5336 44.694 14.5095 44.6906 14.4751 44.6595L1.88453 34.2965C1.70904 34.1518 1.6299 33.9796 1.6299 33.7556C1.6299 33.5283 1.71248 33.356 1.88453 33.2148L14.4786 22.8517C14.513 22.8242 14.5371 22.8207 14.5784 22.838C14.6197 22.8586 14.6335 22.8793 14.6335 22.9241V28.2193C14.6335 28.6706 14.9982 29.0358 15.449 29.0358H16.5811C23.2394 29.0358 29.5161 31.6472 34.2535 36.3877C37.0751 39.2127 39.181 42.6854 40.3957 46.4544C39.4184 47.1951 38.4859 48.0047 37.6016 48.8901C34.8178 51.6772 32.7257 54.9673 31.4113 58.5502L31.4044 54.0818C31.4044 50.1405 29.8599 46.4168 27.0452 43.6019ZM71.117 48.3321L58.5229 58.6951C58.4885 58.7227 58.4644 58.7261 58.4231 58.7089C58.3818 58.6882 58.368 58.6676 58.368 58.6228V53.71C58.368 53.2587 58.0033 52.8935 57.5525 52.8935H56.4204C52.4805 52.8935 48.7642 54.4438 45.9528 57.2585C43.1415 60.0732 41.5931 63.7974 41.5931 67.7388V77.6714C41.5931 78.0573 41.28 78.3742 40.8911 78.3742H32.1029C31.7175 78.3742 31.4009 78.0607 31.4009 77.6714L31.4043 67.7388C31.4043 61.0724 34.0126 54.7881 38.7508 50.0449C43.4856 45.3044 49.7619 42.6896 56.4232 42.6896H57.5553C58.0061 42.6896 58.3708 42.3244 58.3708 41.8731V36.9603C58.3708 36.9155 58.3846 36.8949 58.4259 36.8742C58.4672 36.8535 58.4912 36.857 58.5257 36.888L71.1197 47.251C71.2952 47.3957 71.3744 47.5679 71.3744 47.7919C71.3709 48.0192 71.2918 48.1915 71.1163 48.3328L71.117 48.3321Z" fill="#005774"/>
</svg>
