<svg width="100" height="59" viewBox="0 0 100 59" fill="none" xmlns="http://www.w3.org/2000/svg">
<path d="M51.1134 0C47.3627 0 43.6496 0.547321 40.6796 1.71698L7.07211 15.1069C5.58851 15.6917 4.41607 16.3946 3.59509 17.2142C2.81301 17.956 2.30458 18.8548 2.22679 19.83C2.22679 19.9091 2.22679 19.9869 2.18928 20.0647C2.18928 20.1036 2.18928 20.1036 2.18928 20.1036V20.1425V35.7551C0.939059 36.1857 0 37.4345 0 38.8778C0 40.7129 1.48499 42.1965 3.32282 42.1965C5.12037 42.1965 6.64565 40.7143 6.64565 38.8778C6.64565 37.4345 5.70659 36.1857 4.41746 35.7551V23.7335C5.12037 24.2405 6.01914 24.6711 7.0735 25.099L20.8274 30.5639V46.1778C20.8274 48.0906 21.8428 49.8479 23.4848 51.2926C25.0865 52.7748 27.3536 54.025 30.0888 55.0391C35.5203 57.1075 42.9466 58.3577 51.1134 58.3577C59.2815 58.3577 66.6662 57.1089 72.138 55.0391C74.8746 54.025 77.1403 52.7748 78.742 51.2926C80.384 49.8479 81.3994 48.0906 81.3994 46.1778V30.5639L95.1158 25.099C96.6008 24.5128 97.8121 23.8501 98.6331 23.0305C99.493 22.211 100 21.1969 100 20.1036C100 19.0493 99.493 18.0352 98.6331 17.2142C97.8121 16.3946 96.6008 15.6917 95.1158 15.1069L61.5097 1.71698C58.5383 0.547321 54.8655 0 51.1134 0ZM51.1134 2.2254C54.6307 2.2254 58.148 2.73244 60.7276 3.7479L94.3337 17.1378C95.6242 17.6851 96.5216 18.2686 97.0703 18.8159C97.6176 19.3229 97.8121 19.7536 97.8121 20.105C97.8121 20.4565 97.6162 20.9246 97.0703 21.4705C96.5216 21.9776 95.6242 22.5638 94.3337 23.0708L79.9519 28.7705C79.9519 28.8094 79.9144 28.8094 79.8741 28.8094L60.7276 36.458C60.0622 36.7316 59.3607 36.965 58.6161 37.1609C56.388 37.7471 53.7305 38.0194 51.1134 38.0194C50.216 38.0194 49.3158 37.9819 48.456 37.9027C47.5975 37.8235 46.7765 37.7471 45.9555 37.6304C45.0956 37.5123 44.3136 37.3567 43.5718 37.1609C43.18 37.0442 42.8286 36.965 42.4771 36.8483C42.1257 36.7316 41.8117 36.576 41.5005 36.458H41.4617L22.3138 28.808C22.3138 28.808 22.2749 28.808 22.2346 28.7691L7.8542 23.0694C6.56368 22.5624 5.66491 21.9762 5.11759 21.4692C4.57027 20.9218 4.41469 20.4551 4.41469 20.1036C4.41469 20.1036 4.41469 20.0647 4.41469 20.0244C4.41469 19.7119 4.57027 19.284 5.11759 18.8145C5.66491 18.2672 6.56368 17.6837 7.8542 17.1364L41.4603 3.74651C44.0399 2.73244 47.5975 2.2254 51.1134 2.2254ZM23.0153 31.4626L40.6796 38.4903C43.6496 39.6613 47.3627 40.2462 51.1134 40.2462C54.8266 40.2462 58.5772 39.6613 61.5083 38.4903L79.2101 31.4626V46.1792C79.2101 47.3113 78.585 48.4824 77.257 49.6923C75.9276 50.8633 73.8953 52.0358 71.3559 52.9707C66.2356 54.9224 59.0468 56.1726 51.1134 56.1726C43.18 56.1726 35.9509 54.9238 30.832 52.9707C28.2912 52.0344 26.2589 50.862 24.9698 49.6923C23.6404 48.4824 23.0153 47.3113 23.0153 46.1792V31.4626ZM3.32004 37.7471C3.94516 37.7471 4.45219 38.2541 4.45219 38.8778C4.45219 39.503 3.94516 40.01 3.32004 40.01C2.69493 40.01 2.18789 39.503 2.18789 38.8778C2.18789 38.2541 2.69493 37.7471 3.32004 37.7471Z" fill="#005774"/>
</svg>
