<svg width="72" height="88" viewBox="0 0 72 88" fill="none" xmlns="http://www.w3.org/2000/svg">
<path fill-rule="evenodd" clip-rule="evenodd" d="M17.2189 66.6493V83.3085C17.2189 84.8036 17.9327 86.2112 19.1411 87.0932C20.3465 87.9784 21.9056 88.2318 23.3332 87.7814L35.5304 83.9184C35.8372 83.8183 36.1691 83.8183 36.4759 83.9184L48.6731 87.7814C50.1007 88.2318 51.6567 87.9784 52.8651 87.0932C54.0736 86.2112 54.7874 84.8036 54.7874 83.3085V66.6462C65.1062 60.3216 72 48.9422 72 35.9677C72 16.1149 55.8675 0 36 0C16.1294 0 0 16.1149 0 35.9677C0 48.9422 6.89382 60.3247 17.2189 66.6493ZM51.6567 68.3571C46.9231 70.6499 41.6102 71.9355 36 71.9355C30.3929 71.9355 25.0832 70.6499 20.3496 68.3603V83.3085C20.3496 83.8058 20.5875 84.275 20.9883 84.5691C21.3921 84.8631 21.9118 84.9506 22.3877 84.7974C26.4201 83.5212 32.3089 81.657 34.5818 80.9344C35.5054 80.6435 36.4978 80.6435 37.4214 80.9344C39.6974 81.657 45.5863 83.5212 49.6186 84.7974C50.0945 84.9506 50.6142 84.8631 51.0149 84.5691C51.4188 84.275 51.6567 83.8058 51.6567 83.3085V68.3571ZM36 3.1279C54.1393 3.1279 68.8693 17.8415 68.8693 35.9677C68.8693 54.0908 54.1393 68.8076 36 68.8076C17.8575 68.8076 3.13071 54.0908 3.13071 35.9677C3.13071 17.8415 17.8575 3.1279 36 3.1279ZM32.2713 16.7155L28.4174 27.3316L17.1218 27.7132C15.425 27.7695 13.9442 28.883 13.4214 30.497C12.8954 32.111 13.437 33.8814 14.7769 34.923L23.6901 41.8669L20.5656 52.7176C20.096 54.3473 20.6971 56.0989 22.0715 57.0967C23.4459 58.0945 25.2962 58.1258 26.7018 57.1749L36.0657 50.8503L45.4297 57.1749C46.8385 58.1258 48.6888 58.0945 50.0632 57.0967C51.4375 56.0989 52.0386 54.3473 51.569 52.7176L48.4414 41.8669L57.3578 34.923C58.6946 33.8814 59.2393 32.111 58.7133 30.497C58.1874 28.883 56.7096 27.7695 55.0128 27.7132L43.7141 27.3316L39.8602 16.7155C39.281 15.1203 37.7657 14.0599 36.0657 14.0599C34.3689 14.0599 32.8505 15.1203 32.2713 16.7155ZM35.2173 17.7821C35.3457 17.4255 35.6869 17.1878 36.0657 17.1878C36.4477 17.1878 36.7889 17.4255 36.9173 17.7821L41.1344 29.3929C41.3504 29.9934 41.914 30.4001 42.5526 30.422L54.9064 30.8411C55.2852 30.8536 55.6171 31.1007 55.736 31.4636C55.8519 31.8264 55.7329 32.2236 55.4323 32.4582L45.6833 40.0496C45.1793 40.4438 44.9633 41.1038 45.1417 41.7168L48.5604 53.584C48.6668 53.95 48.5323 54.341 48.2224 54.5662C47.9155 54.7883 47.4992 54.7977 47.183 54.5819L36.9423 47.6661C36.4132 47.3095 35.7183 47.3095 35.1892 47.6661L24.9486 54.5819C24.6355 54.7977 24.2191 54.7883 23.9092 54.5662C23.6024 54.341 23.4678 53.95 23.5742 53.584L26.993 41.7168C27.1683 41.1038 26.9554 40.4438 26.4514 40.0496L16.7024 32.4582C16.4018 32.2236 16.2797 31.8264 16.3987 31.4636C16.5145 31.1007 16.8464 30.8536 17.2283 30.8411L29.5821 30.422C30.2207 30.4001 30.7811 29.9934 31.0003 29.3929L35.2173 17.7821Z" fill="#005774"/>
</svg>
