<svg width="67" height="80" viewBox="0 0 67 80" fill="none" xmlns="http://www.w3.org/2000/svg">
<path d="M45.088 5.24223e-06C42.0663 -0.00331488 39.1172 1.57056 37.5055 4.3828C35.1047 8.56644 36.5412 13.9556 40.699 16.3721C44.8568 18.786 50.21 17.3383 52.611 13.1581C55.0118 8.97445 53.5819 3.58873 49.4242 1.17471C48.0602 0.381156 46.5676 0.00264019 45.0914 0.00264019L45.088 5.24223e-06ZM44.9229 2.49027C46.0259 2.46702 47.1487 2.73929 48.1791 3.33695C51.1744 5.07682 52.185 8.8919 50.4578 11.9067C48.7273 14.9183 44.9361 15.9442 41.941 14.2077C38.9456 12.4678 37.9252 8.64608 39.6557 5.63451C40.7918 3.65561 42.8161 2.53667 44.9231 2.49349L44.9229 2.49027ZM39.2724 17.5345L19.5571 18.1421H19.5604C19.2268 18.1521 18.9098 18.2949 18.6786 18.5406L5.15182 33.193C4.68947 33.6976 4.7159 34.4879 5.21787 34.956C5.71984 35.4242 6.50579 35.3943 6.97145 34.8896L20.1482 20.6257L37.126 20.1011L27.2092 37.3834C25.8915 39.681 26.6775 42.6527 28.9628 43.9809L40.5772 50.7278V78.7482V78.7449C40.5739 79.0769 40.706 79.3957 40.9372 79.6315C41.1717 79.8672 41.4887 80 41.8157 80C42.1492 80 42.4663 79.8705 42.7008 79.6348C42.9352 79.399 43.0673 79.077 43.064 78.7449V50.0045C43.064 49.5596 42.8263 49.1479 42.4399 48.9254L30.2074 41.8199C29.0846 41.1691 28.7048 39.7646 29.3521 38.6357L39.2994 21.31L46.2741 33.755C46.5548 34.2563 47.1393 34.4987 47.6876 34.346L66.0891 29.1961C66.4061 29.1098 66.6769 28.8973 66.8388 28.6084C67.0006 28.3196 67.0435 27.9776 66.9543 27.6588C66.8652 27.3367 66.6538 27.0678 66.3665 26.9051C66.0759 26.7424 65.7357 26.6992 65.4187 26.7922L47.9649 31.6731L40.4221 18.226V18.2227C40.2042 17.7877 39.7583 17.5221 39.2761 17.5354L39.2724 17.5345ZM28.3842 45.7411C28.3016 45.7411 28.2223 45.751 28.1431 45.7676C27.8194 45.8407 27.5387 46.0399 27.3637 46.3221C24.4906 50.8677 20.6564 56.0505 20.3526 56.4627L1.00676 60.2545H1.00345C0.679817 60.3176 0.395805 60.5102 0.210868 60.7857C0.029237 61.058 -0.0401217 61.3967 0.0226257 61.7221C0.0886745 62.0475 0.276912 62.3331 0.551016 62.519C0.82512 62.7049 1.15867 62.7713 1.48234 62.7083L21.3135 58.8235C21.6173 58.767 21.8914 58.5944 22.0763 58.3453C22.0763 58.3453 26.3926 52.5148 29.4639 47.6608C29.6389 47.3819 29.6984 47.0432 29.6257 46.7178C29.5531 46.3957 29.3582 46.1135 29.0775 45.9342C28.8728 45.8014 28.6317 45.735 28.384 45.7383L28.3842 45.7411Z" fill="#005774"/>
</svg>
